<?xml version="1.0" encoding="utf-8" standalone="no"?>
<!DOCTYPE svg PUBLIC "-//W3C//DTD SVG 1.1//EN"
  "http://www.w3.org/Graphics/SVG/1.1/DTD/svg11.dtd">
<svg xmlns:xlink="http://www.w3.org/1999/xlink" width="432pt" height="288pt" viewBox="0 0 432 288" xmlns="http://www.w3.org/2000/svg" version="1.1">
 <metadata>
  <rdf:RDF xmlns:dc="http://purl.org/dc/elements/1.1/" xmlns:cc="http://creativecommons.org/ns#" xmlns:rdf="http://www.w3.org/1999/02/22-rdf-syntax-ns#">
   <cc:Work>
    <dc:type rdf:resource="http://purl.org/dc/dcmitype/StillImage"/>
    <dc:date>2023-10-29T07:01:48.370912</dc:date>
    <dc:format>image/svg+xml</dc:format>
    <dc:creator>
     <cc:Agent>
      <dc:title>Matplotlib v3.8.0, https://matplotlib.org/</dc:title>
     </cc:Agent>
    </dc:creator>
   </cc:Work>
  </rdf:RDF>
 </metadata>
 <defs>
  <style type="text/css">*{stroke-linejoin: round; stroke-linecap: butt}</style>
 </defs>
 <g id="figure_1">
  <g id="patch_1">
   <path d="M 0 288 
L 432 288 
L 432 0 
L 0 0 
z
" style="fill: #ffffff"/>
  </g>
  <g id="axes_1">
   <g id="patch_2">
    <path d="M 56.09 246.04 
L 421.2 246.04 
L 421.2 10.8 
L 56.09 10.8 
z
" style="fill: #ffffff"/>
   </g>
   <g id="matplotlib.axis_1">
    <g id="xtick_1">
     <g id="line2d_1">
      <path d="M 68.260333 246.04 
L 68.260333 10.8 
" clip-path="url(#p3cbd831659)" style="fill: none; stroke: #d3d3d3; stroke-width: 0.8; stroke-linecap: square"/>
     </g>
     <g id="line2d_2">
      <defs>
       <path id="m3f772f3b9b" d="M 0 0 
L 0 3.5 
" style="stroke: #000000; stroke-width: 0.8"/>
      </defs>
      <g>
       <use xlink:href="#m3f772f3b9b" x="68.260333" y="246.04" style="stroke: #000000; stroke-width: 0.8"/>
      </g>
     </g>
     <g id="text_1">
      <!-- −0.2 -->
      <g transform="translate(56.118927 260.638438) scale(0.1 -0.1)">
       <defs>
        <path id="DejaVuSans-2212" d="M 678 2272 
L 4684 2272 
L 4684 1741 
L 678 1741 
L 678 2272 
z
" transform="scale(0.015625)"/>
        <path id="DejaVuSans-30" d="M 2034 4250 
Q 1547 4250 1301 3770 
Q 1056 3291 1056 2328 
Q 1056 1369 1301 889 
Q 1547 409 2034 409 
Q 2525 409 2770 889 
Q 3016 1369 3016 2328 
Q 3016 3291 2770 3770 
Q 2525 4250 2034 4250 
z
M 2034 4750 
Q 2819 4750 3233 4129 
Q 3647 3509 3647 2328 
Q 3647 1150 3233 529 
Q 2819 -91 2034 -91 
Q 1250 -91 836 529 
Q 422 1150 422 2328 
Q 422 3509 836 4129 
Q 1250 4750 2034 4750 
z
" transform="scale(0.015625)"/>
        <path id="DejaVuSans-2e" d="M 684 794 
L 1344 794 
L 1344 0 
L 684 0 
L 684 794 
z
" transform="scale(0.015625)"/>
        <path id="DejaVuSans-32" d="M 1228 531 
L 3431 531 
L 3431 0 
L 469 0 
L 469 531 
Q 828 903 1448 1529 
Q 2069 2156 2228 2338 
Q 2531 2678 2651 2914 
Q 2772 3150 2772 3378 
Q 2772 3750 2511 3984 
Q 2250 4219 1831 4219 
Q 1534 4219 1204 4116 
Q 875 4013 500 3803 
L 500 4441 
Q 881 4594 1212 4672 
Q 1544 4750 1819 4750 
Q 2544 4750 2975 4387 
Q 3406 4025 3406 3419 
Q 3406 3131 3298 2873 
Q 3191 2616 2906 2266 
Q 2828 2175 2409 1742 
Q 1991 1309 1228 531 
z
" transform="scale(0.015625)"/>
       </defs>
       <use xlink:href="#DejaVuSans-2212"/>
       <use xlink:href="#DejaVuSans-30" x="83.789062"/>
       <use xlink:href="#DejaVuSans-2e" x="147.412109"/>
       <use xlink:href="#DejaVuSans-32" x="179.199219"/>
      </g>
     </g>
    </g>
    <g id="xtick_2">
     <g id="line2d_3">
      <path d="M 116.941667 246.04 
L 116.941667 10.8 
" clip-path="url(#p3cbd831659)" style="fill: none; stroke: #d3d3d3; stroke-width: 0.8; stroke-linecap: square"/>
     </g>
     <g id="line2d_4">
      <g>
       <use xlink:href="#m3f772f3b9b" x="116.941667" y="246.04" style="stroke: #000000; stroke-width: 0.8"/>
      </g>
     </g>
     <g id="text_2">
      <!-- 0.0 -->
      <g transform="translate(108.990104 260.638438) scale(0.1 -0.1)">
       <use xlink:href="#DejaVuSans-30"/>
       <use xlink:href="#DejaVuSans-2e" x="63.623047"/>
       <use xlink:href="#DejaVuSans-30" x="95.410156"/>
      </g>
     </g>
    </g>
    <g id="xtick_3">
     <g id="line2d_5">
      <path d="M 165.623 246.04 
L 165.623 10.8 
" clip-path="url(#p3cbd831659)" style="fill: none; stroke: #d3d3d3; stroke-width: 0.8; stroke-linecap: square"/>
     </g>
     <g id="line2d_6">
      <g>
       <use xlink:href="#m3f772f3b9b" x="165.623" y="246.04" style="stroke: #000000; stroke-width: 0.8"/>
      </g>
     </g>
     <g id="text_3">
      <!-- 0.2 -->
      <g transform="translate(157.671437 260.638438) scale(0.1 -0.1)">
       <use xlink:href="#DejaVuSans-30"/>
       <use xlink:href="#DejaVuSans-2e" x="63.623047"/>
       <use xlink:href="#DejaVuSans-32" x="95.410156"/>
      </g>
     </g>
    </g>
    <g id="xtick_4">
     <g id="line2d_7">
      <path d="M 214.304333 246.04 
L 214.304333 10.8 
" clip-path="url(#p3cbd831659)" style="fill: none; stroke: #d3d3d3; stroke-width: 0.8; stroke-linecap: square"/>
     </g>
     <g id="line2d_8">
      <g>
       <use xlink:href="#m3f772f3b9b" x="214.304333" y="246.04" style="stroke: #000000; stroke-width: 0.8"/>
      </g>
     </g>
     <g id="text_4">
      <!-- 0.4 -->
      <g transform="translate(206.352771 260.638438) scale(0.1 -0.1)">
       <defs>
        <path id="DejaVuSans-34" d="M 2419 4116 
L 825 1625 
L 2419 1625 
L 2419 4116 
z
M 2253 4666 
L 3047 4666 
L 3047 1625 
L 3713 1625 
L 3713 1100 
L 3047 1100 
L 3047 0 
L 2419 0 
L 2419 1100 
L 313 1100 
L 313 1709 
L 2253 4666 
z
" transform="scale(0.015625)"/>
       </defs>
       <use xlink:href="#DejaVuSans-30"/>
       <use xlink:href="#DejaVuSans-2e" x="63.623047"/>
       <use xlink:href="#DejaVuSans-34" x="95.410156"/>
      </g>
     </g>
    </g>
    <g id="xtick_5">
     <g id="line2d_9">
      <path d="M 262.985667 246.04 
L 262.985667 10.8 
" clip-path="url(#p3cbd831659)" style="fill: none; stroke: #d3d3d3; stroke-width: 0.8; stroke-linecap: square"/>
     </g>
     <g id="line2d_10">
      <g>
       <use xlink:href="#m3f772f3b9b" x="262.985667" y="246.04" style="stroke: #000000; stroke-width: 0.8"/>
      </g>
     </g>
     <g id="text_5">
      <!-- 0.6 -->
      <g transform="translate(255.034104 260.638438) scale(0.1 -0.1)">
       <defs>
        <path id="DejaVuSans-36" d="M 2113 2584 
Q 1688 2584 1439 2293 
Q 1191 2003 1191 1497 
Q 1191 994 1439 701 
Q 1688 409 2113 409 
Q 2538 409 2786 701 
Q 3034 994 3034 1497 
Q 3034 2003 2786 2293 
Q 2538 2584 2113 2584 
z
M 3366 4563 
L 3366 3988 
Q 3128 4100 2886 4159 
Q 2644 4219 2406 4219 
Q 1781 4219 1451 3797 
Q 1122 3375 1075 2522 
Q 1259 2794 1537 2939 
Q 1816 3084 2150 3084 
Q 2853 3084 3261 2657 
Q 3669 2231 3669 1497 
Q 3669 778 3244 343 
Q 2819 -91 2113 -91 
Q 1303 -91 875 529 
Q 447 1150 447 2328 
Q 447 3434 972 4092 
Q 1497 4750 2381 4750 
Q 2619 4750 2861 4703 
Q 3103 4656 3366 4563 
z
" transform="scale(0.015625)"/>
       </defs>
       <use xlink:href="#DejaVuSans-30"/>
       <use xlink:href="#DejaVuSans-2e" x="63.623047"/>
       <use xlink:href="#DejaVuSans-36" x="95.410156"/>
      </g>
     </g>
    </g>
    <g id="xtick_6">
     <g id="line2d_11">
      <path d="M 311.667 246.04 
L 311.667 10.8 
" clip-path="url(#p3cbd831659)" style="fill: none; stroke: #d3d3d3; stroke-width: 0.8; stroke-linecap: square"/>
     </g>
     <g id="line2d_12">
      <g>
       <use xlink:href="#m3f772f3b9b" x="311.667" y="246.04" style="stroke: #000000; stroke-width: 0.8"/>
      </g>
     </g>
     <g id="text_6">
      <!-- 0.8 -->
      <g transform="translate(303.715438 260.638438) scale(0.1 -0.1)">
       <defs>
        <path id="DejaVuSans-38" d="M 2034 2216 
Q 1584 2216 1326 1975 
Q 1069 1734 1069 1313 
Q 1069 891 1326 650 
Q 1584 409 2034 409 
Q 2484 409 2743 651 
Q 3003 894 3003 1313 
Q 3003 1734 2745 1975 
Q 2488 2216 2034 2216 
z
M 1403 2484 
Q 997 2584 770 2862 
Q 544 3141 544 3541 
Q 544 4100 942 4425 
Q 1341 4750 2034 4750 
Q 2731 4750 3128 4425 
Q 3525 4100 3525 3541 
Q 3525 3141 3298 2862 
Q 3072 2584 2669 2484 
Q 3125 2378 3379 2068 
Q 3634 1759 3634 1313 
Q 3634 634 3220 271 
Q 2806 -91 2034 -91 
Q 1263 -91 848 271 
Q 434 634 434 1313 
Q 434 1759 690 2068 
Q 947 2378 1403 2484 
z
M 1172 3481 
Q 1172 3119 1398 2916 
Q 1625 2713 2034 2713 
Q 2441 2713 2670 2916 
Q 2900 3119 2900 3481 
Q 2900 3844 2670 4047 
Q 2441 4250 2034 4250 
Q 1625 4250 1398 4047 
Q 1172 3844 1172 3481 
z
" transform="scale(0.015625)"/>
       </defs>
       <use xlink:href="#DejaVuSans-30"/>
       <use xlink:href="#DejaVuSans-2e" x="63.623047"/>
       <use xlink:href="#DejaVuSans-38" x="95.410156"/>
      </g>
     </g>
    </g>
    <g id="xtick_7">
     <g id="line2d_13">
      <path d="M 360.348333 246.04 
L 360.348333 10.8 
" clip-path="url(#p3cbd831659)" style="fill: none; stroke: #d3d3d3; stroke-width: 0.8; stroke-linecap: square"/>
     </g>
     <g id="line2d_14">
      <g>
       <use xlink:href="#m3f772f3b9b" x="360.348333" y="246.04" style="stroke: #000000; stroke-width: 0.8"/>
      </g>
     </g>
     <g id="text_7">
      <!-- 1.0 -->
      <g transform="translate(352.396771 260.638438) scale(0.1 -0.1)">
       <defs>
        <path id="DejaVuSans-31" d="M 794 531 
L 1825 531 
L 1825 4091 
L 703 3866 
L 703 4441 
L 1819 4666 
L 2450 4666 
L 2450 531 
L 3481 531 
L 3481 0 
L 794 0 
L 794 531 
z
" transform="scale(0.015625)"/>
       </defs>
       <use xlink:href="#DejaVuSans-31"/>
       <use xlink:href="#DejaVuSans-2e" x="63.623047"/>
       <use xlink:href="#DejaVuSans-30" x="95.410156"/>
      </g>
     </g>
    </g>
    <g id="xtick_8">
     <g id="line2d_15">
      <path d="M 409.029667 246.04 
L 409.029667 10.8 
" clip-path="url(#p3cbd831659)" style="fill: none; stroke: #d3d3d3; stroke-width: 0.8; stroke-linecap: square"/>
     </g>
     <g id="line2d_16">
      <g>
       <use xlink:href="#m3f772f3b9b" x="409.029667" y="246.04" style="stroke: #000000; stroke-width: 0.8"/>
      </g>
     </g>
     <g id="text_8">
      <!-- 1.2 -->
      <g transform="translate(401.078104 260.638438) scale(0.1 -0.1)">
       <use xlink:href="#DejaVuSans-31"/>
       <use xlink:href="#DejaVuSans-2e" x="63.623047"/>
       <use xlink:href="#DejaVuSans-32" x="95.410156"/>
      </g>
     </g>
    </g>
    <g id="text_9">
     <!-- x -->
     <g transform="translate(235.685625 274.316562) scale(0.1 -0.1)">
      <defs>
       <path id="DejaVuSans-78" d="M 3513 3500 
L 2247 1797 
L 3578 0 
L 2900 0 
L 1881 1375 
L 863 0 
L 184 0 
L 1544 1831 
L 300 3500 
L 978 3500 
L 1906 2253 
L 2834 3500 
L 3513 3500 
z
" transform="scale(0.015625)"/>
      </defs>
      <use xlink:href="#DejaVuSans-78"/>
     </g>
    </g>
   </g>
   <g id="matplotlib.axis_2">
    <g id="ytick_1">
     <g id="line2d_17">
      <path d="M 56.09 214.965566 
L 421.2 214.965566 
" clip-path="url(#p3cbd831659)" style="fill: none; stroke: #d3d3d3; stroke-width: 0.8; stroke-linecap: square"/>
     </g>
     <g id="line2d_18">
      <defs>
       <path id="m97cfc984b4" d="M 0 0 
L -3.5 0 
" style="stroke: #000000; stroke-width: 0.8"/>
      </defs>
      <g>
       <use xlink:href="#m97cfc984b4" x="56.09" y="214.965566" style="stroke: #000000; stroke-width: 0.8"/>
      </g>
     </g>
     <g id="text_10">
      <!-- −1.0 -->
      <g transform="translate(24.807188 218.764784) scale(0.1 -0.1)">
       <use xlink:href="#DejaVuSans-2212"/>
       <use xlink:href="#DejaVuSans-31" x="83.789062"/>
       <use xlink:href="#DejaVuSans-2e" x="147.412109"/>
       <use xlink:href="#DejaVuSans-30" x="179.199219"/>
      </g>
     </g>
    </g>
    <g id="ytick_2">
     <g id="line2d_19">
      <path d="M 56.09 176.60649 
L 421.2 176.60649 
" clip-path="url(#p3cbd831659)" style="fill: none; stroke: #d3d3d3; stroke-width: 0.8; stroke-linecap: square"/>
     </g>
     <g id="line2d_20">
      <g>
       <use xlink:href="#m97cfc984b4" x="56.09" y="176.60649" style="stroke: #000000; stroke-width: 0.8"/>
      </g>
     </g>
     <g id="text_11">
      <!-- −0.5 -->
      <g transform="translate(24.807188 180.405709) scale(0.1 -0.1)">
       <defs>
        <path id="DejaVuSans-35" d="M 691 4666 
L 3169 4666 
L 3169 4134 
L 1269 4134 
L 1269 2991 
Q 1406 3038 1543 3061 
Q 1681 3084 1819 3084 
Q 2600 3084 3056 2656 
Q 3513 2228 3513 1497 
Q 3513 744 3044 326 
Q 2575 -91 1722 -91 
Q 1428 -91 1123 -41 
Q 819 9 494 109 
L 494 744 
Q 775 591 1075 516 
Q 1375 441 1709 441 
Q 2250 441 2565 725 
Q 2881 1009 2881 1497 
Q 2881 1984 2565 2268 
Q 2250 2553 1709 2553 
Q 1456 2553 1204 2497 
Q 953 2441 691 2322 
L 691 4666 
z
" transform="scale(0.015625)"/>
       </defs>
       <use xlink:href="#DejaVuSans-2212"/>
       <use xlink:href="#DejaVuSans-30" x="83.789062"/>
       <use xlink:href="#DejaVuSans-2e" x="147.412109"/>
       <use xlink:href="#DejaVuSans-35" x="179.199219"/>
      </g>
     </g>
    </g>
    <g id="ytick_3">
     <g id="line2d_21">
      <path d="M 56.09 138.247415 
L 421.2 138.247415 
" clip-path="url(#p3cbd831659)" style="fill: none; stroke: #d3d3d3; stroke-width: 0.8; stroke-linecap: square"/>
     </g>
     <g id="line2d_22">
      <g>
       <use xlink:href="#m97cfc984b4" x="56.09" y="138.247415" style="stroke: #000000; stroke-width: 0.8"/>
      </g>
     </g>
     <g id="text_12">
      <!-- 0.0 -->
      <g transform="translate(33.186875 142.046634) scale(0.1 -0.1)">
       <use xlink:href="#DejaVuSans-30"/>
       <use xlink:href="#DejaVuSans-2e" x="63.623047"/>
       <use xlink:href="#DejaVuSans-30" x="95.410156"/>
      </g>
     </g>
    </g>
    <g id="ytick_4">
     <g id="line2d_23">
      <path d="M 56.09 99.88834 
L 421.2 99.88834 
" clip-path="url(#p3cbd831659)" style="fill: none; stroke: #d3d3d3; stroke-width: 0.8; stroke-linecap: square"/>
     </g>
     <g id="line2d_24">
      <g>
       <use xlink:href="#m97cfc984b4" x="56.09" y="99.88834" style="stroke: #000000; stroke-width: 0.8"/>
      </g>
     </g>
     <g id="text_13">
      <!-- 0.5 -->
      <g transform="translate(33.186875 103.687559) scale(0.1 -0.1)">
       <use xlink:href="#DejaVuSans-30"/>
       <use xlink:href="#DejaVuSans-2e" x="63.623047"/>
       <use xlink:href="#DejaVuSans-35" x="95.410156"/>
      </g>
     </g>
    </g>
    <g id="ytick_5">
     <g id="line2d_25">
      <path d="M 56.09 61.529265 
L 421.2 61.529265 
" clip-path="url(#p3cbd831659)" style="fill: none; stroke: #d3d3d3; stroke-width: 0.8; stroke-linecap: square"/>
     </g>
     <g id="line2d_26">
      <g>
       <use xlink:href="#m97cfc984b4" x="56.09" y="61.529265" style="stroke: #000000; stroke-width: 0.8"/>
      </g>
     </g>
     <g id="text_14">
      <!-- 1.0 -->
      <g transform="translate(33.186875 65.328484) scale(0.1 -0.1)">
       <use xlink:href="#DejaVuSans-31"/>
       <use xlink:href="#DejaVuSans-2e" x="63.623047"/>
       <use xlink:href="#DejaVuSans-30" x="95.410156"/>
      </g>
     </g>
    </g>
    <g id="ytick_6">
     <g id="line2d_27">
      <path d="M 56.09 23.17019 
L 421.2 23.17019 
" clip-path="url(#p3cbd831659)" style="fill: none; stroke: #d3d3d3; stroke-width: 0.8; stroke-linecap: square"/>
     </g>
     <g id="line2d_28">
      <g>
       <use xlink:href="#m97cfc984b4" x="56.09" y="23.17019" style="stroke: #000000; stroke-width: 0.8"/>
      </g>
     </g>
     <g id="text_15">
      <!-- 1.5 -->
      <g transform="translate(33.186875 26.969409) scale(0.1 -0.1)">
       <use xlink:href="#DejaVuSans-31"/>
       <use xlink:href="#DejaVuSans-2e" x="63.623047"/>
       <use xlink:href="#DejaVuSans-35" x="95.410156"/>
      </g>
     </g>
    </g>
    <g id="text_16">
     <!-- y -->
     <g transform="translate(18.7275 131.379375) rotate(-90) scale(0.1 -0.1)">
      <defs>
       <path id="DejaVuSans-79" d="M 2059 -325 
Q 1816 -950 1584 -1140 
Q 1353 -1331 966 -1331 
L 506 -1331 
L 506 -850 
L 844 -850 
Q 1081 -850 1212 -737 
Q 1344 -625 1503 -206 
L 1606 56 
L 191 3500 
L 800 3500 
L 1894 763 
L 2988 3500 
L 3597 3500 
L 2059 -325 
z
" transform="scale(0.015625)"/>
      </defs>
      <use xlink:href="#DejaVuSans-79"/>
     </g>
    </g>
   </g>
   <g id="PolyCollection_1">
    <path d="M 56.09 41.022129 
L 56.09 235.347273 
L 56.45511 235.343889 
L 56.82022 235.340338 
L 57.18533 235.336613 
L 57.55044 235.332706 
L 57.91555 235.328609 
L 58.28066 235.324314 
L 58.64577 235.319811 
L 59.01088 235.315093 
L 59.37599 235.310149 
L 59.7411 235.30497 
L 60.10621 235.299546 
L 60.47132 235.293867 
L 60.83643 235.287922 
L 61.20154 235.281699 
L 61.56665 235.275188 
L 61.93176 235.268375 
L 62.29687 235.261249 
L 62.66198 235.253796 
L 63.02709 235.246003 
L 63.3922 235.237857 
L 63.75731 235.229343 
L 64.12242 235.220446 
L 64.48753 235.21115 
L 64.85264 235.20144 
L 65.21775 235.191299 
L 65.58286 235.180709 
L 65.94797 235.169654 
L 66.31308 235.158115 
L 66.67819 235.146073 
L 67.0433 235.133507 
L 67.40841 235.120399 
L 67.77352 235.106726 
L 68.13863 235.092467 
L 68.50374 235.0776 
L 68.86885 235.0621 
L 69.23396 235.045945 
L 69.59907 235.029109 
L 69.96418 235.011566 
L 70.32929 234.993289 
L 70.6944 234.974252 
L 71.05951 234.954425 
L 71.42462 234.933779 
L 71.78973 234.912283 
L 72.15484 234.889907 
L 72.51995 234.866616 
L 72.88506 234.842379 
L 73.25017 234.817159 
L 73.61528 234.790921 
L 73.98039 234.763628 
L 74.3455 234.735241 
L 74.71061 234.705721 
L 75.07572 234.675025 
L 75.44083 234.643113 
L 75.80594 234.60994 
L 76.17105 234.575461 
L 76.53616 234.539629 
L 76.90127 234.502395 
L 77.26638 234.46371 
L 77.63149 234.423523 
L 77.9966 234.381779 
L 78.36171 234.338423 
L 78.72682 234.2934 
L 79.09193 234.24665 
L 79.45704 234.198112 
L 79.82215 234.147725 
L 80.18726 234.095423 
L 80.55237 234.04114 
L 80.91748 233.984807 
L 81.28259 233.926352 
L 81.6477 233.865704 
L 82.01281 233.802786 
L 82.37792 233.737519 
L 82.74303 233.669825 
L 83.10814 233.59962 
L 83.47325 233.526819 
L 83.83836 233.451333 
L 84.20347 233.373071 
L 84.56858 233.291941 
L 84.93369 233.207847 
L 85.2988 233.120688 
L 85.66391 233.030363 
L 86.02902 232.936767 
L 86.39413 232.839792 
L 86.75924 232.739326 
L 87.12435 232.635256 
L 87.48946 232.527463 
L 87.85457 232.415827 
L 88.21968 232.300224 
L 88.58479 232.180527 
L 88.9499 232.056604 
L 89.31501 231.928322 
L 89.68012 231.795542 
L 90.04523 231.658123 
L 90.41034 231.51592 
L 90.77545 231.368786 
L 91.14056 231.216568 
L 91.50567 231.05911 
L 91.87078 230.896253 
L 92.23589 230.727834 
L 92.601 230.553687 
L 92.96611 230.373642 
L 93.33122 230.187524 
L 93.69633 229.995157 
L 94.06144 229.796359 
L 94.42655 229.590945 
L 94.79166 229.378727 
L 95.15677 229.159514 
L 95.52188 228.933111 
L 95.88699 228.699318 
L 96.2521 228.457933 
L 96.61721 228.208752 
L 96.98232 227.951566 
L 97.34743 227.686163 
L 97.71254 227.412328 
L 98.07765 227.129844 
L 98.44276 226.83849 
L 98.80787 226.538044 
L 99.17298 226.228279 
L 99.53809 225.908967 
L 99.9032 225.579877 
L 100.26831 225.240777 
L 100.63342 224.891432 
L 100.99853 224.531605 
L 101.36364 224.161059 
L 101.72875 223.779553 
L 102.09386 223.386846 
L 102.45897 222.982697 
L 102.82408 222.566863 
L 103.18919 222.139099 
L 103.5543 221.699163 
L 103.91941 221.246809 
L 104.28452 220.781795 
L 104.64963 220.303876 
L 105.01474 219.812809 
L 105.37985 219.308352 
L 105.74496 218.790264 
L 106.11007 218.258306 
L 106.47518 217.712239 
L 106.84029 217.151828 
L 107.2054 216.576838 
L 107.57051 215.98704 
L 107.93562 215.382205 
L 108.30073 214.762107 
L 108.66584 214.126527 
L 109.03095 213.475246 
L 109.39606 212.808052 
L 109.76117 212.124735 
L 110.12628 211.425093 
L 110.49139 210.708926 
L 110.8565 209.976042 
L 111.22161 209.226254 
L 111.58672 208.459381 
L 111.95183 207.675248 
L 112.31694 206.873689 
L 112.68205 206.054543 
L 113.04716 205.217658 
L 113.41227 204.362889 
L 113.77738 203.490101 
L 114.14249 202.599165 
L 114.5076 201.689963 
L 114.87271 200.762385 
L 115.23782 199.816332 
L 115.60293 198.851713 
L 115.96804 197.86845 
L 116.33315 196.866472 
L 116.69826 195.845721 
L 117.06337 194.806151 
L 117.42848 193.747725 
L 117.79359 192.670419 
L 118.1587 191.574223 
L 118.52381 190.459135 
L 118.88892 189.32517 
L 119.25403 188.172352 
L 119.61914 187.000721 
L 119.98425 185.810329 
L 120.34936 184.601242 
L 120.71447 183.37354 
L 121.07958 182.127316 
L 121.44469 180.86268 
L 121.8098 179.579753 
L 122.17491 178.278674 
L 122.54002 176.959596 
L 122.90513 175.622686 
L 123.27024 174.268127 
L 123.63535 172.89612 
L 124.00046 171.506879 
L 124.36557 170.100636 
L 124.73068 168.677638 
L 125.09579 167.238151 
L 125.4609 165.782456 
L 125.82601 164.310852 
L 126.19112 162.823656 
L 126.55623 161.321202 
L 126.92134 159.803845 
L 127.28645 158.271956 
L 127.65156 156.725927 
L 128.01667 155.16617 
L 128.38178 153.593119 
L 128.74689 152.007228 
L 129.112 150.408976 
L 129.47711 148.798865 
L 129.84222 147.177422 
L 130.20733 145.545204 
L 130.57244 143.902796 
L 130.93755 142.250817 
L 131.30266 140.589921 
L 131.66777 138.920804 
L 132.03288 137.244205 
L 132.39799 135.560919 
L 132.7631 133.871798 
L 133.12821 132.177766 
L 133.49332 130.479833 
L 133.85843 128.77911 
L 134.22354 127.076833 
L 134.58865 125.37439 
L 134.95376 123.673367 
L 135.31887 121.975595 
L 135.68398 120.283224 
L 136.04909 118.598822 
L 136.4142 116.925514 
L 136.77931 115.267174 
L 137.14442 113.628696 
L 137.50953 112.01639 
L 137.87464 110.438535 
L 138.23975 108.906167 
L 138.60486 107.434161 
L 138.96997 106.042591 
L 139.33508 104.75816 
L 139.70019 103.614885 
L 140.0653 102.652311 
L 140.43041 101.908888 
L 140.79552 101.410315 
L 141.16063 101.158552 
L 141.52574 101.130302 
L 141.89085 101.286493 
L 142.25596 101.584765 
L 142.62107 101.987649 
L 142.98618 102.465356 
L 143.35129 102.9954 
L 143.7164 103.561144 
L 144.08151 104.150298 
L 144.44662 104.753691 
L 144.81173 105.364382 
L 145.17684 105.977017 
L 145.54195 106.587385 
L 145.90706 107.19211 
L 146.27217 107.788431 
L 146.63728 108.374048 
L 147.00239 108.947012 
L 147.3675 109.505643 
L 147.73261 110.048475 
L 148.09772 110.574209 
L 148.46283 111.081682 
L 148.82794 111.569842 
L 149.19305 112.037733 
L 149.55816 112.484472 
L 149.92327 112.909249 
L 150.28838 113.31131 
L 150.65349 113.689952 
L 151.0186 114.044521 
L 151.38371 114.374405 
L 151.74882 114.679031 
L 152.11393 114.957861 
L 152.47904 115.210395 
L 152.84415 115.436162 
L 153.20926 115.634726 
L 153.57437 115.80568 
L 153.93948 115.948647 
L 154.30459 116.063278 
L 154.6697 116.149254 
L 155.03481 116.206284 
L 155.39992 116.234105 
L 155.76503 116.232481 
L 156.13014 116.201206 
L 156.49525 116.140098 
L 156.86036 116.049005 
L 157.22547 115.927801 
L 157.59058 115.776389 
L 157.95569 115.594697 
L 158.3208 115.382683 
L 158.68591 115.14033 
L 159.05102 114.867649 
L 159.41613 114.56468 
L 159.78124 114.231487 
L 160.14635 113.868163 
L 160.51146 113.474829 
L 160.87657 113.051633 
L 161.24168 112.598748 
L 161.60679 112.116376 
L 161.9719 111.604745 
L 162.33701 111.064112 
L 162.70212 110.494756 
L 163.06723 109.896988 
L 163.43234 109.271142 
L 163.79745 108.617581 
L 164.16256 107.93669 
L 164.52767 107.228885 
L 164.89278 106.494605 
L 165.25789 105.734316 
L 165.623 104.948508 
L 165.98811 104.137699 
L 166.35322 103.30243 
L 166.71833 102.443268 
L 167.08344 101.560806 
L 167.44855 100.655661 
L 167.81366 99.728475 
L 168.17877 98.779916 
L 168.54388 97.810676 
L 168.90899 96.821472 
L 169.2741 95.813048 
L 169.63921 94.786172 
L 170.00432 93.74164 
L 170.36943 92.680273 
L 170.73454 91.602922 
L 171.09965 90.510465 
L 171.46476 89.403811 
L 171.82987 88.283902 
L 172.19498 87.151713 
L 172.56009 86.008258 
L 172.9252 84.854591 
L 173.29031 83.691814 
L 173.65542 82.521079 
L 174.02053 81.343601 
L 174.38564 80.16066 
L 174.75075 78.973623 
L 175.11586 77.783954 
L 175.48097 76.593237 
L 175.84608 75.403204 
L 176.21119 74.21577 
L 176.5763 73.033083 
L 176.94141 71.857591 
L 177.30652 70.692124 
L 177.67163 69.540019 
L 178.03674 68.405283 
L 178.40185 67.292816 
L 178.76696 66.208731 
L 179.13207 65.160781 
L 179.49718 64.158941 
L 179.86229 63.216163 
L 180.2274 62.349263 
L 180.59251 61.579762 
L 180.95762 60.934159 
L 181.32273 60.442668 
L 181.68784 60.135197 
L 182.05295 60.034361 
L 182.41806 60.148113 
L 182.78317 60.466686 
L 183.14828 60.966244 
L 183.51339 61.616424 
L 183.8785 62.38711 
L 184.24361 63.252158 
L 184.60872 64.190462 
L 184.97383 65.185579 
L 185.33894 66.224866 
L 185.70405 67.298594 
L 186.06916 68.399206 
L 186.43427 69.520748 
L 186.79938 70.658449 
L 187.16449 71.808414 
L 187.5296 72.967406 
L 187.89471 74.132685 
L 188.25982 75.301891 
L 188.62493 76.472958 
L 188.99004 77.644053 
L 189.35515 78.813529 
L 189.72026 79.979884 
L 190.08537 81.141744 
L 190.45048 82.297832 
L 190.81559 83.446961 
L 191.1807 84.588014 
L 191.54581 85.719942 
L 191.91092 86.841752 
L 192.27603 87.9525 
L 192.64114 89.051292 
L 193.00625 90.137277 
L 193.37136 91.209642 
L 193.73647 92.267614 
L 194.10158 93.310458 
L 194.46669 94.337472 
L 194.8318 95.347991 
L 195.19691 96.341382 
L 195.56202 97.317046 
L 195.92713 98.274418 
L 196.29224 99.212964 
L 196.65735 100.132184 
L 197.02246 101.03161 
L 197.38757 101.910808 
L 197.75268 102.769374 
L 198.11779 103.606941 
L 198.4829 104.423171 
L 198.84801 105.217761 
L 199.21312 105.990441 
L 199.57823 106.740974 
L 199.94334 107.469157 
L 200.30845 108.174821 
L 200.67356 108.857828 
L 201.03867 109.518077 
L 201.40378 110.1555 
L 201.76889 110.770061 
L 202.134 111.361759 
L 202.49911 111.930628 
L 202.86422 112.476732 
L 203.22933 113.000173 
L 203.59444 113.501082 
L 203.95955 113.979626 
L 204.32466 114.436004 
L 204.68977 114.870448 
L 205.05488 115.283221 
L 205.41999 115.674619 
L 205.7851 116.04497 
L 206.15021 116.394631 
L 206.51532 116.723991 
L 206.88043 117.03347 
L 207.24554 117.323515 
L 207.61065 117.594604 
L 207.97576 117.847241 
L 208.34087 118.081961 
L 208.70598 118.299322 
L 209.07109 118.499911 
L 209.4362 118.684338 
L 209.80131 118.853238 
L 210.16642 119.00727 
L 210.53153 119.147116 
L 210.89664 119.27348 
L 211.26175 119.387085 
L 211.62686 119.488675 
L 211.99197 119.579013 
L 212.35708 119.65888 
L 212.72219 119.729075 
L 213.0873 119.79041 
L 213.45241 119.843715 
L 213.81752 119.889832 
L 214.18263 119.929618 
L 214.54774 119.96394 
L 214.91285 119.993678 
L 215.27796 120.019721 
L 215.64307 120.042969 
L 216.00818 120.064329 
L 216.37329 120.084718 
L 216.7384 120.105059 
L 217.10351 120.126283 
L 217.46862 120.149326 
L 217.83373 120.175131 
L 218.19884 120.204649 
L 218.56395 120.238835 
L 218.92906 120.278651 
L 219.29417 120.325066 
L 219.65928 120.379058 
L 220.02439 120.44161 
L 220.3895 120.51372 
L 220.75461 120.596394 
L 221.11972 120.690652 
L 221.48483 120.797533 
L 221.84994 120.91809 
L 222.21505 121.053403 
L 222.58016 121.204573 
L 222.94527 121.372735 
L 223.31038 121.559054 
L 223.67549 121.764733 
L 224.0406 121.991017 
L 224.40571 122.239193 
L 224.77082 122.510595 
L 225.13593 122.806597 
L 225.50104 123.128616 
L 225.86615 123.478094 
L 226.23126 123.856487 
L 226.59637 124.265236 
L 226.96148 124.705732 
L 227.32659 125.179268 
L 227.6917 125.686978 
L 228.05681 126.229764 
L 228.42192 126.808218 
L 228.78703 127.422544 
L 229.15214 128.07248 
L 229.51725 128.757253 
L 229.88236 129.475547 
L 230.24747 130.225513 
L 230.61258 131.004817 
L 230.97769 131.81072 
L 231.3428 132.640171 
L 231.70791 133.48993 
L 232.07302 134.356672 
L 232.43813 135.237094 
L 232.80324 136.127997 
L 233.16835 137.026348 
L 233.53346 137.929327 
L 233.89857 138.834353 
L 234.26368 139.739094 
L 234.62879 140.641464 
L 234.9939 141.539624 
L 235.35901 142.43196 
L 235.72412 143.317074 
L 236.08923 144.193764 
L 236.45434 145.061008 
L 236.81945 145.917947 
L 237.18456 146.763871 
L 237.54967 147.598204 
L 237.91478 148.420492 
L 238.27989 149.230387 
L 238.645 150.027645 
L 239.01011 150.812107 
L 239.37522 151.583697 
L 239.74033 152.342414 
L 240.10544 153.088322 
L 240.47055 153.821545 
L 240.83566 154.542264 
L 241.20077 155.250709 
L 241.56588 155.947154 
L 241.93099 156.631915 
L 242.2961 157.305341 
L 242.66121 157.967817 
L 243.02632 158.619751 
L 243.39143 159.261579 
L 243.75654 159.893753 
L 244.12165 160.516744 
L 244.48676 161.131033 
L 244.85187 161.737109 
L 245.21698 162.335468 
L 245.58209 162.926602 
L 245.9472 163.511004 
L 246.31231 164.089159 
L 246.67742 164.661539 
L 247.04253 165.228607 
L 247.40764 165.790804 
L 247.77275 166.348555 
L 248.13786 166.902262 
L 248.50297 167.452303 
L 248.86808 167.999029 
L 249.23319 168.542765 
L 249.5983 169.083809 
L 249.96341 169.62243 
L 250.32852 170.158871 
L 250.69363 170.69335 
L 251.05874 171.226058 
L 251.42385 171.757165 
L 251.78896 172.286821 
L 252.15407 172.815158 
L 252.51918 173.342294 
L 252.88429 173.868337 
L 253.2494 174.393384 
L 253.61451 174.91753 
L 253.97962 175.440866 
L 254.34473 175.963486 
L 254.70984 176.485487 
L 255.07495 177.006973 
L 255.44006 177.528053 
L 255.80517 178.048851 
L 256.17028 178.569498 
L 256.53539 179.09014 
L 256.9005 179.610934 
L 257.26561 180.13205 
L 257.63072 180.653672 
L 257.99583 181.175993 
L 258.36094 181.69922 
L 258.72605 182.223567 
L 259.09116 182.749257 
L 259.45627 183.276519 
L 259.82138 183.805584 
L 260.18649 184.336687 
L 260.5516 184.870059 
L 260.91671 185.405931 
L 261.28182 185.944523 
L 261.64693 186.486048 
L 262.01204 187.030706 
L 262.37715 187.578684 
L 262.74226 188.130147 
L 263.10737 188.685243 
L 263.47248 189.244097 
L 263.83759 189.806807 
L 264.2027 190.373445 
L 264.56781 190.944054 
L 264.93292 191.518646 
L 265.29803 192.097202 
L 265.66314 192.679668 
L 266.02825 193.26596 
L 266.39336 193.855958 
L 266.75847 194.449509 
L 267.12358 195.046427 
L 267.48869 195.646492 
L 267.8538 196.249453 
L 268.21891 196.855028 
L 268.58402 197.462906 
L 268.94913 198.072748 
L 269.31424 198.684189 
L 269.67935 199.296839 
L 270.04446 199.910287 
L 270.40957 200.524101 
L 270.77468 201.13783 
L 271.13979 201.751011 
L 271.5049 202.363163 
L 271.87001 202.973798 
L 272.23512 203.582417 
L 272.60023 204.188513 
L 272.96534 204.791578 
L 273.33045 205.3911 
L 273.69556 205.986566 
L 274.06067 206.577466 
L 274.42578 207.163295 
L 274.79089 207.743551 
L 275.156 208.317743 
L 275.52111 208.885386 
L 275.88622 209.446009 
L 276.25133 209.999152 
L 276.61644 210.544369 
L 276.98155 211.08123 
L 277.34666 211.60932 
L 277.71177 212.128243 
L 278.07688 212.637622 
L 278.44199 213.137096 
L 278.8071 213.626329 
L 279.17221 214.105 
L 279.53732 214.572812 
L 279.90243 215.029487 
L 280.26754 215.474769 
L 280.63265 215.908421 
L 280.99776 216.330226 
L 281.36287 216.739987 
L 281.72798 217.137523 
L 282.09309 217.522672 
L 282.4582 217.895288 
L 282.82331 218.255237 
L 283.18842 218.602398 
L 283.55353 218.936663 
L 283.91864 219.257929 
L 284.28375 219.566102 
L 284.64886 219.861093 
L 285.01397 220.142815 
L 285.37908 220.411183 
L 285.74419 220.66611 
L 286.1093 220.907507 
L 286.47441 221.135286 
L 286.83952 221.349349 
L 287.20463 221.5496 
L 287.56974 221.735935 
L 287.93485 221.90825 
L 288.29996 222.066437 
L 288.66507 222.210389 
L 289.03018 222.34 
L 289.39529 222.45517 
L 289.7604 222.555803 
L 290.12551 222.641816 
L 290.49062 222.713141 
L 290.85573 222.769725 
L 291.22084 222.811538 
L 291.58595 222.838575 
L 291.95106 222.850859 
L 292.31617 222.848446 
L 292.68128 222.831428 
L 293.04639 222.799937 
L 293.4115 222.754145 
L 293.77661 222.69427 
L 294.14172 222.620577 
L 294.50683 222.53338 
L 294.87194 222.433043 
L 295.23705 222.319979 
L 295.60216 222.194657 
L 295.96727 222.057596 
L 296.33238 221.909365 
L 296.69749 221.750586 
L 297.0626 221.581929 
L 297.42771 221.404111 
L 297.79282 221.217894 
L 298.15793 221.02408 
L 298.52304 220.823509 
L 298.88815 220.617053 
L 299.25326 220.405614 
L 299.61837 220.190111 
L 299.98348 219.971484 
L 300.34859 219.750679 
L 300.7137 219.528643 
L 301.07881 219.30632 
L 301.44392 219.08464 
L 301.80903 218.864512 
L 302.17414 218.646816 
L 302.53925 218.432399 
L 302.90436 218.222064 
L 303.26947 218.016568 
L 303.63458 217.816613 
L 303.99969 217.622843 
L 304.3648 217.43584 
L 304.72991 217.256122 
L 305.09502 217.084141 
L 305.46013 216.92028 
L 305.82524 216.764855 
L 306.19035 216.618115 
L 306.55546 216.480242 
L 306.92057 216.351357 
L 307.28568 216.231516 
L 307.65079 216.120716 
L 308.0159 216.0189 
L 308.38101 215.925957 
L 308.74612 215.841723 
L 309.11123 215.765991 
L 309.47634 215.698506 
L 309.84145 215.638976 
L 310.20656 215.587066 
L 310.57167 215.542409 
L 310.93678 215.504603 
L 311.30189 215.473217 
L 311.667 215.447791 
L 312.03211 215.42784 
L 312.39722 215.412853 
L 312.76233 215.4023 
L 313.12744 215.395631 
L 313.49255 215.392278 
L 313.85766 215.391658 
L 314.22277 215.393172 
L 314.58788 215.396213 
L 314.95299 215.400163 
L 315.3181 215.404393 
L 315.68321 215.408274 
L 316.04832 215.411168 
L 316.41343 215.412438 
L 316.77854 215.411447 
L 317.14365 215.40756 
L 317.50876 215.400147 
L 317.87387 215.388586 
L 318.23898 215.372265 
L 318.60409 215.350581 
L 318.9692 215.32295 
L 319.33431 215.288803 
L 319.69942 215.247591 
L 320.06453 215.19879 
L 320.42964 215.141901 
L 320.79475 215.076457 
L 321.15986 215.002019 
L 321.52497 214.918191 
L 321.89008 214.824612 
L 322.25519 214.720968 
L 322.6203 214.606991 
L 322.98541 214.482466 
L 323.35052 214.347233 
L 323.71563 214.201194 
L 324.08074 214.044313 
L 324.44585 213.876623 
L 324.81096 213.698226 
L 325.17607 213.5093 
L 325.54118 213.310098 
L 325.90629 213.10095 
L 326.2714 212.88226 
L 326.63651 212.654505 
L 327.00162 212.41823 
L 327.36673 212.174036 
L 327.73184 211.922569 
L 328.09695 211.664504 
L 328.46206 211.40052 
L 328.82717 211.131277 
L 329.19228 210.857385 
L 329.55739 210.57937 
L 329.9225 210.297639 
L 330.28761 210.012447 
L 330.65272 209.723864 
L 331.01783 209.431752 
L 331.38294 209.135743 
L 331.74805 208.835234 
L 332.11316 208.52939 
L 332.47827 208.217156 
L 332.84338 207.897274 
L 333.20849 207.56832 
L 333.5736 207.228732 
L 333.93871 206.876847 
L 334.30382 206.510936 
L 334.66893 206.129238 
L 335.03404 205.729993 
L 335.39915 205.311462 
L 335.76426 204.871954 
L 336.12937 204.409843 
L 336.49448 203.923577 
L 336.85959 203.411695 
L 337.2247 202.87283 
L 337.58981 202.305715 
L 337.95492 201.709186 
L 338.32003 201.082186 
L 338.68514 200.423761 
L 339.05025 199.733067 
L 339.41536 199.009366 
L 339.78047 198.252027 
L 340.14558 197.460524 
L 340.51069 196.634441 
L 340.8758 195.773467 
L 341.24091 194.8774 
L 341.60602 193.946149 
L 341.97113 192.979734 
L 342.33624 191.97829 
L 342.70135 190.942074 
L 343.06646 189.871463 
L 343.43157 188.766969 
L 343.79668 187.629241 
L 344.16179 186.459079 
L 344.5269 185.257445 
L 344.89201 184.025479 
L 345.25712 182.764517 
L 345.62223 181.476119 
L 345.98734 180.162089 
L 346.35245 178.824515 
L 346.71756 177.465807 
L 347.08267 176.088741 
L 347.44778 174.696515 
L 347.81289 173.292803 
L 348.178 171.881817 
L 348.54311 170.46836 
L 348.90822 169.057875 
L 349.27333 167.656456 
L 349.63844 166.27082 
L 350.00355 164.908207 
L 350.36866 163.576193 
L 350.73377 162.282402 
L 351.09888 161.034123 
L 351.46399 159.837893 
L 351.8291 158.699088 
L 352.19421 157.621632 
L 352.55932 156.607864 
L 352.92443 155.658602 
L 353.28954 154.773356 
L 353.65465 153.95064 
L 354.01976 153.188306 
L 354.38487 152.483847 
L 354.74998 151.834634 
L 355.11509 151.238085 
L 355.4802 150.691769 
L 355.84531 150.193467 
L 356.21042 149.741188 
L 356.57553 149.333167 
L 356.94064 148.967853 
L 357.30575 148.643884 
L 357.67086 148.360066 
L 358.03597 148.115343 
L 358.40108 147.90878 
L 358.76619 147.739538 
L 359.1313 147.60686 
L 359.49641 147.51005 
L 359.86152 147.448465 
L 360.22663 147.421501 
L 360.59174 147.428581 
L 360.95685 147.469151 
L 361.32196 147.542672 
L 361.68707 147.648612 
L 362.05218 147.786446 
L 362.41729 147.955648 
L 362.7824 148.155689 
L 363.14751 148.386035 
L 363.51262 148.646145 
L 363.87773 148.935471 
L 364.24284 149.253453 
L 364.60795 149.599522 
L 364.97306 149.973095 
L 365.33817 150.373581 
L 365.70328 150.800374 
L 366.06839 151.252858 
L 366.4335 151.730404 
L 366.79861 152.232374 
L 367.16372 152.758115 
L 367.52883 153.306967 
L 367.89394 153.878258 
L 368.25905 154.471307 
L 368.62416 155.085424 
L 368.98927 155.719913 
L 369.35438 156.374067 
L 369.71949 157.047175 
L 370.0846 157.738521 
L 370.44971 158.447381 
L 370.81482 159.173031 
L 371.17993 159.91474 
L 371.54504 160.671778 
L 371.91015 161.443412 
L 372.27526 162.228908 
L 372.64037 163.027534 
L 373.00548 163.838557 
L 373.37059 164.661248 
L 373.7357 165.494881 
L 374.10081 166.338732 
L 374.46592 167.192082 
L 374.83103 168.054219 
L 375.19614 168.924434 
L 375.56125 169.802028 
L 375.92636 170.686308 
L 376.29147 171.576588 
L 376.65658 172.472194 
L 377.02169 173.372458 
L 377.3868 174.276724 
L 377.75191 175.184347 
L 378.11702 176.094693 
L 378.48213 177.007138 
L 378.84724 177.921073 
L 379.21235 178.8359 
L 379.57746 179.751034 
L 379.94257 180.665905 
L 380.30768 181.579957 
L 380.67279 182.492645 
L 381.0379 183.403442 
L 381.40301 184.311835 
L 381.76812 185.217326 
L 382.13323 186.119431 
L 382.49834 187.017684 
L 382.86345 187.911633 
L 383.22856 188.800841 
L 383.59367 189.684889 
L 383.95878 190.563372 
L 384.32389 191.435902 
L 384.689 192.302108 
L 385.05411 193.161632 
L 385.41922 194.014134 
L 385.78433 194.85929 
L 386.14944 195.696791 
L 386.51455 196.526345 
L 386.87966 197.347673 
L 387.24477 198.160515 
L 387.60988 198.964622 
L 387.97499 199.759764 
L 388.3401 200.545724 
L 388.70521 201.3223 
L 389.07032 202.089303 
L 389.43543 202.84656 
L 389.80054 203.593912 
L 390.16565 204.331212 
L 390.53076 205.058327 
L 390.89587 205.775138 
L 391.26098 206.481538 
L 391.62609 207.177431 
L 391.9912 207.862736 
L 392.35631 208.53738 
L 392.72142 209.201306 
L 393.08653 209.854464 
L 393.45164 210.496816 
L 393.81675 211.128336 
L 394.18186 211.749005 
L 394.54697 212.358817 
L 394.91208 212.957772 
L 395.27719 213.545881 
L 395.6423 214.123163 
L 396.00741 214.689646 
L 396.37252 215.245364 
L 396.73763 215.790361 
L 397.10274 216.324687 
L 397.46785 216.848398 
L 397.83296 217.361558 
L 398.19807 217.864235 
L 398.56318 218.356507 
L 398.92829 218.838453 
L 399.2934 219.31016 
L 399.65851 219.771719 
L 400.02362 220.223225 
L 400.38873 220.66478 
L 400.75384 221.096487 
L 401.11895 221.518453 
L 401.48406 221.930791 
L 401.84917 222.333616 
L 402.21428 222.727044 
L 402.57939 223.111196 
L 402.9445 223.486196 
L 403.30961 223.852169 
L 403.67472 224.209241 
L 404.03983 224.557542 
L 404.40494 224.897202 
L 404.77005 225.228354 
L 405.13516 225.551132 
L 405.50027 225.865669 
L 405.86538 226.172101 
L 406.23049 226.470564 
L 406.5956 226.761194 
L 406.96071 227.044129 
L 407.32582 227.319506 
L 407.69093 227.587462 
L 408.05604 227.848135 
L 408.42115 228.101661 
L 408.78626 228.348178 
L 409.15137 228.587822 
L 409.51648 228.820729 
L 409.88159 229.047035 
L 410.2467 229.266874 
L 410.61181 229.480381 
L 410.97692 229.687688 
L 411.34203 229.888928 
L 411.70714 230.084231 
L 412.07225 230.273729 
L 412.43736 230.457549 
L 412.80247 230.63582 
L 413.16758 230.808668 
L 413.53269 230.976218 
L 413.8978 231.138593 
L 414.26291 231.295917 
L 414.62802 231.448309 
L 414.99313 231.59589 
L 415.35824 231.738776 
L 415.72335 231.877084 
L 416.08846 232.010929 
L 416.45357 232.140423 
L 416.81868 232.265678 
L 417.18379 232.386803 
L 417.5489 232.503907 
L 417.91401 232.617094 
L 418.27912 232.726471 
L 418.64423 232.832139 
L 419.00934 232.9342 
L 419.37445 233.032752 
L 419.73956 233.127894 
L 420.10467 233.21972 
L 420.46978 233.308324 
L 420.83489 233.393799 
L 421.2 233.476235 
L 421.2 39.211725 
L 421.2 39.211725 
L 420.83489 39.134667 
L 420.46978 39.055008 
L 420.10467 38.97269 
L 419.73956 38.887656 
L 419.37445 38.799849 
L 419.00934 38.709213 
L 418.64423 38.615692 
L 418.27912 38.519231 
L 417.91401 38.419777 
L 417.5489 38.317277 
L 417.18379 38.211679 
L 416.81868 38.102934 
L 416.45357 37.990994 
L 416.08846 37.875812 
L 415.72335 37.757344 
L 415.35824 37.635547 
L 414.99313 37.510382 
L 414.62802 37.381812 
L 414.26291 37.249801 
L 413.8978 37.114318 
L 413.53269 36.975335 
L 413.16758 36.832827 
L 412.80247 36.686773 
L 412.43736 36.537155 
L 412.07225 36.38396 
L 411.70714 36.227179 
L 411.34203 36.066809 
L 410.97692 35.902849 
L 410.61181 35.735306 
L 410.2467 35.564191 
L 409.88159 35.389521 
L 409.51648 35.211319 
L 409.15137 35.029615 
L 408.78626 34.844443 
L 408.42115 34.655848 
L 408.05604 34.463878 
L 407.69093 34.26859 
L 407.32582 34.07005 
L 406.96071 33.86833 
L 406.5956 33.66351 
L 406.23049 33.455682 
L 405.86538 33.244942 
L 405.50027 33.031398 
L 405.13516 32.815167 
L 404.77005 32.596376 
L 404.40494 32.375159 
L 404.03983 32.151665 
L 403.67472 31.926049 
L 403.30961 31.698479 
L 402.9445 31.469133 
L 402.57939 31.238201 
L 402.21428 31.005884 
L 401.84917 30.772393 
L 401.48406 30.537953 
L 401.11895 30.302799 
L 400.75384 30.067181 
L 400.38873 29.831357 
L 400.02362 29.595601 
L 399.65851 29.360198 
L 399.2934 29.125446 
L 398.92829 28.891655 
L 398.56318 28.659148 
L 398.19807 28.428263 
L 397.83296 28.199347 
L 397.46785 27.972764 
L 397.10274 27.748887 
L 396.73763 27.528105 
L 396.37252 27.310818 
L 396.00741 27.09744 
L 395.6423 26.888396 
L 395.27719 26.684125 
L 394.91208 26.485077 
L 394.54697 26.291717 
L 394.18186 26.104518 
L 393.81675 25.923967 
L 393.45164 25.750563 
L 393.08653 25.584815 
L 392.72142 25.427244 
L 392.35631 25.27838 
L 391.9912 25.138764 
L 391.62609 25.008947 
L 391.26098 24.889491 
L 390.89587 24.780962 
L 390.53076 24.68394 
L 390.16565 24.59901 
L 389.80054 24.526764 
L 389.43543 24.467801 
L 389.07032 24.422729 
L 388.70521 24.392158 
L 388.3401 24.376703 
L 387.97499 24.376987 
L 387.60988 24.393632 
L 387.24477 24.427265 
L 386.87966 24.478516 
L 386.51455 24.548013 
L 386.14944 24.636387 
L 385.78433 24.744267 
L 385.41922 24.872283 
L 385.05411 25.021061 
L 384.689 25.191224 
L 384.32389 25.38339 
L 383.95878 25.598175 
L 383.59367 25.836186 
L 383.22856 26.098026 
L 382.86345 26.384287 
L 382.49834 26.695554 
L 382.13323 27.032401 
L 381.76812 27.395394 
L 381.40301 27.785082 
L 381.0379 28.202006 
L 380.67279 28.646689 
L 380.30768 29.119642 
L 379.94257 29.621357 
L 379.57746 30.152311 
L 379.21235 30.712961 
L 378.84724 31.303746 
L 378.48213 31.925083 
L 378.11702 32.577369 
L 377.75191 33.260977 
L 377.3868 33.976258 
L 377.02169 34.723538 
L 376.65658 35.503116 
L 376.29147 36.315265 
L 375.92636 37.160232 
L 375.56125 38.038234 
L 375.19614 38.949458 
L 374.83103 39.894062 
L 374.46592 40.872172 
L 374.10081 41.883881 
L 373.7357 42.92925 
L 373.37059 44.008306 
L 373.00548 45.121042 
L 372.64037 46.267414 
L 372.27526 47.447344 
L 371.91015 48.660715 
L 371.54504 49.907374 
L 371.17993 51.18713 
L 370.81482 52.499752 
L 370.44971 53.844972 
L 370.0846 55.22248 
L 369.71949 56.631928 
L 369.35438 58.072925 
L 368.98927 59.545043 
L 368.62416 61.047807 
L 368.25905 62.580706 
L 367.89394 64.143182 
L 367.52883 65.73464 
L 367.16372 67.354437 
L 366.79861 69.001891 
L 366.4335 70.676276 
L 366.06839 72.376823 
L 365.70328 74.102718 
L 365.33817 75.853105 
L 364.97306 77.627084 
L 364.60795 79.42371 
L 364.24284 81.241992 
L 363.87773 83.080897 
L 363.51262 84.939343 
L 363.14751 86.816204 
L 362.7824 88.710305 
L 362.41729 90.620423 
L 362.05218 92.545285 
L 361.68707 94.483567 
L 361.32196 96.43389 
L 360.95685 98.394819 
L 360.59174 100.36486 
L 360.22663 102.342455 
L 359.86152 104.325976 
L 359.49641 106.313723 
L 359.1313 108.303912 
L 358.76619 110.294671 
L 358.40108 112.284027 
L 358.03597 114.269892 
L 357.67086 116.250055 
L 357.30575 118.222159 
L 356.94064 120.183683 
L 356.57553 122.131924 
L 356.21042 124.063972 
L 355.84531 125.976687 
L 355.4802 127.866681 
L 355.11509 129.730302 
L 354.74998 131.563636 
L 354.38487 133.36253 
L 354.01976 135.122648 
L 353.65465 136.839583 
L 353.28954 138.509024 
L 352.92443 140.126998 
L 352.55932 141.690178 
L 352.19421 143.196214 
L 351.8291 144.64405 
L 351.46399 146.034143 
L 351.09888 147.368523 
L 350.73377 148.650671 
L 350.36866 149.885223 
L 350.00355 151.077571 
L 349.63844 152.23344 
L 349.27333 153.358518 
L 348.90822 154.458165 
L 348.54311 155.53723 
L 348.178 156.599952 
L 347.81289 157.649939 
L 347.44778 158.690181 
L 347.08267 159.723099 
L 346.71756 160.750603 
L 346.35245 161.774156 
L 345.98734 162.794834 
L 345.62223 163.813379 
L 345.25712 164.830251 
L 344.89201 165.845669 
L 344.5269 166.859645 
L 344.16179 167.872019 
L 343.79668 168.88248 
L 343.43157 169.890593 
L 343.06646 170.895812 
L 342.70135 171.897495 
L 342.33624 172.894923 
L 341.97113 173.887301 
L 341.60602 174.873776 
L 341.24091 175.853435 
L 340.8758 176.825318 
L 340.51069 177.788421 
L 340.14558 178.741695 
L 339.78047 179.684056 
L 339.41536 180.614382 
L 339.05025 181.531518 
L 338.68514 182.434275 
L 338.32003 183.321432 
L 337.95492 184.191734 
L 337.58981 185.043899 
L 337.2247 185.876612 
L 336.85959 186.688529 
L 336.49448 187.478281 
L 336.12937 188.244473 
L 335.76426 188.985693 
L 335.39915 189.700517 
L 335.03404 190.387519 
L 334.66893 191.045285 
L 334.30382 191.672426 
L 333.93871 192.267606 
L 333.5736 192.829559 
L 333.20849 193.357125 
L 332.84338 193.849275 
L 332.47827 194.305152 
L 332.11316 194.724102 
L 331.74805 195.105704 
L 331.38294 195.449799 
L 331.01783 195.75651 
L 330.65272 196.026251 
L 330.28761 196.259727 
L 329.9225 196.457925 
L 329.55739 196.622092 
L 329.19228 196.753709 
L 328.82717 196.854452 
L 328.46206 196.926162 
L 328.09695 196.970801 
L 327.73184 196.990419 
L 327.36673 196.987118 
L 327.00162 196.963027 
L 326.63651 196.920271 
L 326.2714 196.860958 
L 325.90629 196.787154 
L 325.54118 196.70088 
L 325.17607 196.604095 
L 324.81096 196.498693 
L 324.44585 196.386501 
L 324.08074 196.269269 
L 323.71563 196.148675 
L 323.35052 196.026324 
L 322.98541 195.903742 
L 322.6203 195.782383 
L 322.25519 195.663625 
L 321.89008 195.548775 
L 321.52497 195.439065 
L 321.15986 195.335654 
L 320.79475 195.239633 
L 320.42964 195.152018 
L 320.06453 195.073759 
L 319.69942 195.005734 
L 319.33431 194.948751 
L 318.9692 194.903551 
L 318.60409 194.870807 
L 318.23898 194.851121 
L 317.87387 194.845032 
L 317.50876 194.853007 
L 317.14365 194.87545 
L 316.77854 194.912697 
L 316.41343 194.965018 
L 316.04832 195.032618 
L 315.68321 195.115637 
L 315.3181 195.214153 
L 314.95299 195.328176 
L 314.58788 195.45766 
L 314.22277 195.602493 
L 313.85766 195.762504 
L 313.49255 195.937464 
L 313.12744 196.127086 
L 312.76233 196.331027 
L 312.39722 196.54889 
L 312.03211 196.780225 
L 311.667 197.024533 
L 311.30189 197.281267 
L 310.93678 197.549834 
L 310.57167 197.8296 
L 310.20656 198.119891 
L 309.84145 198.419997 
L 309.47634 198.729177 
L 309.11123 199.046658 
L 308.74612 199.371648 
L 308.38101 199.703331 
L 308.0159 200.040878 
L 307.65079 200.383449 
L 307.28568 200.730199 
L 306.92057 201.080283 
L 306.55546 201.432862 
L 306.19035 201.787105 
L 305.82524 202.1422 
L 305.46013 202.497353 
L 305.09502 202.851795 
L 304.72991 203.204786 
L 304.3648 203.555619 
L 303.99969 203.903621 
L 303.63458 204.248157 
L 303.26947 204.588628 
L 302.90436 204.924476 
L 302.53925 205.255178 
L 302.17414 205.580249 
L 301.80903 205.899238 
L 301.44392 206.211724 
L 301.07881 206.517313 
L 300.7137 206.815637 
L 300.34859 207.106344 
L 299.98348 207.389099 
L 299.61837 207.663577 
L 299.25326 207.929458 
L 298.88815 208.186427 
L 298.52304 208.434166 
L 298.15793 208.67235 
L 297.79282 208.90065 
L 297.42771 209.118725 
L 297.0626 209.326223 
L 296.69749 209.52278 
L 296.33238 209.708017 
L 295.96727 209.881543 
L 295.60216 210.042952 
L 295.23705 210.191827 
L 294.87194 210.327739 
L 294.50683 210.450249 
L 294.14172 210.558911 
L 293.77661 210.653274 
L 293.4115 210.732883 
L 293.04639 210.797284 
L 292.68128 210.846028 
L 292.31617 210.878672 
L 291.95106 210.894784 
L 291.58595 210.893947 
L 291.22084 210.875764 
L 290.85573 210.839859 
L 290.49062 210.785886 
L 290.12551 210.713526 
L 289.7604 210.622501 
L 289.39529 210.512567 
L 289.03018 210.383526 
L 288.66507 210.235225 
L 288.29996 210.067561 
L 287.93485 209.880479 
L 287.56974 209.673982 
L 287.20463 209.448125 
L 286.83952 209.203018 
L 286.47441 208.938829 
L 286.1093 208.655779 
L 285.74419 208.354143 
L 285.37908 208.03425 
L 285.01397 207.696478 
L 284.64886 207.341253 
L 284.28375 206.969046 
L 283.91864 206.580369 
L 283.55353 206.17577 
L 283.18842 205.755833 
L 282.82331 205.32117 
L 282.4582 204.872419 
L 282.09309 204.41024 
L 281.72798 203.935309 
L 281.36287 203.448317 
L 280.99776 202.949964 
L 280.63265 202.440955 
L 280.26754 201.921998 
L 279.90243 201.393801 
L 279.53732 200.857066 
L 279.17221 200.31249 
L 278.8071 199.760757 
L 278.44199 199.20254 
L 278.07688 198.638499 
L 277.71177 198.069274 
L 277.34666 197.495487 
L 276.98155 196.917739 
L 276.61644 196.336609 
L 276.25133 195.752653 
L 275.88622 195.166399 
L 275.52111 194.578352 
L 275.156 193.988987 
L 274.79089 193.398755 
L 274.42578 192.808076 
L 274.06067 192.217342 
L 273.69556 191.626916 
L 273.33045 191.037134 
L 272.96534 190.448301 
L 272.60023 189.860694 
L 272.23512 189.274565 
L 271.87001 188.690136 
L 271.5049 188.107603 
L 271.13979 187.527138 
L 270.77468 186.948887 
L 270.40957 186.372975 
L 270.04446 185.799502 
L 269.67935 185.228551 
L 269.31424 184.660184 
L 268.94913 184.094445 
L 268.58402 183.531365 
L 268.21891 182.970958 
L 267.8538 182.413227 
L 267.48869 181.858163 
L 267.12358 181.305746 
L 266.75847 180.755952 
L 266.39336 180.208745 
L 266.02825 179.664085 
L 265.66314 179.121928 
L 265.29803 178.582224 
L 264.93292 178.044919 
L 264.56781 177.509956 
L 264.2027 176.977275 
L 263.83759 176.446812 
L 263.47248 175.918497 
L 263.10737 175.392257 
L 262.74226 174.868015 
L 262.37715 174.345684 
L 262.01204 173.825171 
L 261.64693 173.306374 
L 261.28182 172.789182 
L 260.91671 172.273471 
L 260.5516 171.759104 
L 260.18649 171.245929 
L 259.82138 170.73378 
L 259.45627 170.222474 
L 259.09116 169.711807 
L 258.72605 169.201559 
L 258.36094 168.691489 
L 257.99583 168.181335 
L 257.63072 167.670816 
L 257.26561 167.159629 
L 256.9005 166.647451 
L 256.53539 166.133938 
L 256.17028 165.61873 
L 255.80517 165.101448 
L 255.44006 164.581696 
L 255.07495 164.059067 
L 254.70984 163.533142 
L 254.34473 163.003494 
L 253.97962 162.46969 
L 253.61451 161.931297 
L 253.2494 161.387884 
L 252.88429 160.839027 
L 252.51918 160.284313 
L 252.15407 159.723343 
L 251.78896 159.155741 
L 251.42385 158.581151 
L 251.05874 157.99925 
L 250.69363 157.409745 
L 250.32852 156.812382 
L 249.96341 156.206943 
L 249.5983 155.593259 
L 249.23319 154.9712 
L 248.86808 154.340689 
L 248.50297 153.701694 
L 248.13786 153.054234 
L 247.77275 152.398376 
L 247.40764 151.734237 
L 247.04253 151.061982 
L 246.67742 150.38182 
L 246.31231 149.694007 
L 245.9472 148.998838 
L 245.58209 148.296647 
L 245.21698 147.587805 
L 244.85187 146.872712 
L 244.48676 146.1518 
L 244.12165 145.425524 
L 243.75654 144.694358 
L 243.39143 143.958795 
L 243.02632 143.219341 
L 242.66121 142.476509 
L 242.2961 141.730818 
L 241.93099 140.982784 
L 241.56588 140.232923 
L 241.20077 139.481739 
L 240.83566 138.729724 
L 240.47055 137.977348 
L 240.10544 137.225063 
L 239.74033 136.473287 
L 239.37522 135.722403 
L 239.01011 134.972756 
L 238.645 134.224639 
L 238.27989 133.47829 
L 237.91478 132.733882 
L 237.54967 131.991514 
L 237.18456 131.251203 
L 236.81945 130.512867 
L 236.45434 129.776318 
L 236.08923 129.041248 
L 235.72412 128.307207 
L 235.35901 127.573597 
L 234.9939 126.839646 
L 234.62879 126.104395 
L 234.26368 125.366677 
L 233.89857 124.625105 
L 233.53346 123.878053 
L 233.16835 123.123652 
L 232.80324 122.359787 
L 232.43813 121.584108 
L 232.07302 120.794054 
L 231.70791 119.986898 
L 231.3428 119.159809 
L 230.97769 118.309935 
L 230.61258 117.434503 
L 230.24747 116.530934 
L 229.88236 115.596949 
L 229.51725 114.630678 
L 229.15214 113.630727 
L 228.78703 112.596231 
L 228.42192 111.526861 
L 228.05681 110.422794 
L 227.6917 109.284665 
L 227.32659 108.113489 
L 226.96148 106.910583 
L 226.59637 105.677488 
L 226.23126 104.415894 
L 225.86615 103.127581 
L 225.50104 101.814366 
L 225.13593 100.478074 
L 224.77082 99.120506 
L 224.40571 97.743421 
L 224.0406 96.348532 
L 223.67549 94.937495 
L 223.31038 93.511913 
L 222.94527 92.07333 
L 222.58016 90.62324 
L 222.21505 89.163088 
L 221.84994 87.694274 
L 221.48483 86.218157 
L 221.11972 84.73606 
L 220.75461 83.249272 
L 220.3895 81.759051 
L 220.02439 80.26663 
L 219.65928 78.773216 
L 219.29417 77.279995 
L 218.92906 75.788133 
L 218.56395 74.298777 
L 218.19884 72.813056 
L 217.83373 71.332083 
L 217.46862 69.856957 
L 217.10351 68.38876 
L 216.7384 66.928562 
L 216.37329 65.477418 
L 216.00818 64.036367 
L 215.64307 62.606438 
L 215.27796 61.188644 
L 214.91285 59.783983 
L 214.54774 58.393441 
L 214.18263 57.017988 
L 213.81752 55.658579 
L 213.45241 54.316154 
L 213.0873 52.991638 
L 212.72219 51.68594 
L 212.35708 50.39995 
L 211.99197 49.134544 
L 211.62686 47.890578 
L 211.26175 46.668891 
L 210.89664 45.470303 
L 210.53153 44.295616 
L 210.16642 43.14561 
L 209.80131 42.021048 
L 209.4362 40.92267 
L 209.07109 39.851194 
L 208.70598 38.807319 
L 208.34087 37.791721 
L 207.97576 36.805053 
L 207.61065 35.847945 
L 207.24554 34.921002 
L 206.88043 34.024809 
L 206.51532 33.159924 
L 206.15021 32.326881 
L 205.7851 31.526187 
L 205.41999 30.758328 
L 205.05488 30.023761 
L 204.68977 29.322917 
L 204.32466 28.656202 
L 203.95955 28.023995 
L 203.59444 27.426648 
L 203.22933 26.864487 
L 202.86422 26.337808 
L 202.49911 25.846883 
L 202.134 25.391953 
L 201.76889 24.973234 
L 201.40378 24.590911 
L 201.03867 24.245143 
L 200.67356 23.936061 
L 200.30845 23.663764 
L 199.94334 23.428327 
L 199.57823 23.229793 
L 199.21312 23.068176 
L 198.84801 22.943464 
L 198.4829 22.855613 
L 198.11779 22.804551 
L 197.75268 22.790175 
L 197.38757 22.812355 
L 197.02246 22.870929 
L 196.65735 22.965706 
L 196.29224 23.096464 
L 195.92713 23.262953 
L 195.56202 23.464888 
L 195.19691 23.701957 
L 194.8318 23.973813 
L 194.46669 24.280078 
L 194.10158 24.620341 
L 193.73647 24.994157 
L 193.37136 25.401044 
L 193.00625 25.840486 
L 192.64114 26.311927 
L 192.27603 26.814771 
L 191.91092 27.34838 
L 191.54581 27.912068 
L 191.1807 28.505099 
L 190.81559 29.126685 
L 190.45048 29.775973 
L 190.08537 30.452042 
L 189.72026 31.153893 
L 189.35515 31.880435 
L 188.99004 32.630467 
L 188.62493 33.402661 
L 188.25982 34.195534 
L 187.89471 35.007409 
L 187.5296 35.83637 
L 187.16449 36.680198 
L 186.79938 37.536285 
L 186.43427 38.401518 
L 186.06916 39.272117 
L 185.70405 40.143416 
L 185.33894 41.009556 
L 184.97383 41.863067 
L 184.60872 42.694292 
L 184.24361 43.490655 
L 183.8785 44.235765 
L 183.51339 44.908557 
L 183.14828 45.482919 
L 182.78317 45.928753 
L 182.41806 46.215705 
L 182.05295 46.319933 
L 181.68784 46.231654 
L 181.32273 45.958792 
L 180.95762 45.523921 
L 180.59251 44.956895 
L 180.2274 44.287863 
L 179.86229 43.543246 
L 179.49718 42.744473 
L 179.13207 41.908259 
L 178.76696 41.047441 
L 178.40185 40.171865 
L 178.03674 39.289144 
L 177.67163 38.40524 
L 177.30652 37.52489 
L 176.94141 36.651924 
L 176.5763 35.789492 
L 176.21119 34.940226 
L 175.84608 34.106362 
L 175.48097 33.289829 
L 175.11586 32.492309 
L 174.75075 31.715292 
L 174.38564 30.960108 
L 174.02053 30.22796 
L 173.65542 29.51994 
L 173.29031 28.837049 
L 172.9252 28.180209 
L 172.56009 27.550273 
L 172.19498 26.948035 
L 171.82987 26.374232 
L 171.46476 25.829556 
L 171.09965 25.31465 
L 170.73454 24.83012 
L 170.36943 24.37653 
L 170.00432 23.954409 
L 169.63921 23.564251 
L 169.2741 23.206519 
L 168.90899 22.881642 
L 168.54388 22.590019 
L 168.17877 22.332022 
L 167.81366 22.10799 
L 167.44855 21.918238 
L 167.08344 21.763051 
L 166.71833 21.642687 
L 166.35322 21.557378 
L 165.98811 21.507332 
L 165.623 21.492727 
L 165.25789 21.51372 
L 164.89278 21.570439 
L 164.52767 21.662989 
L 164.16256 21.791452 
L 163.79745 21.955882 
L 163.43234 22.156313 
L 163.06723 22.392752 
L 162.70212 22.665184 
L 162.33701 22.973571 
L 161.9719 23.317851 
L 161.60679 23.697939 
L 161.24168 24.113729 
L 160.87657 24.565092 
L 160.51146 25.051874 
L 160.14635 25.573903 
L 159.78124 26.130984 
L 159.41613 26.7229 
L 159.05102 27.349413 
L 158.68591 28.010264 
L 158.3208 28.705172 
L 157.95569 29.433839 
L 157.59058 30.195941 
L 157.22547 30.991139 
L 156.86036 31.819071 
L 156.49525 32.679355 
L 156.13014 33.57159 
L 155.76503 34.495356 
L 155.39992 35.450212 
L 155.03481 36.435697 
L 154.6697 37.451331 
L 154.30459 38.496615 
L 153.93948 39.571029 
L 153.57437 40.674033 
L 153.20926 41.805067 
L 152.84415 42.963548 
L 152.47904 44.148873 
L 152.11393 45.360417 
L 151.74882 46.59753 
L 151.38371 47.859537 
L 151.0186 49.145738 
L 150.65349 50.455402 
L 150.28838 51.787768 
L 149.92327 53.142039 
L 149.55816 54.51738 
L 149.19305 55.91291 
L 148.82794 57.327697 
L 148.46283 58.760748 
L 148.09772 60.211 
L 147.73261 61.677301 
L 147.3675 63.158396 
L 147.00239 64.652902 
L 146.63728 66.159269 
L 146.27217 67.675745 
L 145.90706 69.200312 
L 145.54195 70.730608 
L 145.17684 72.263812 
L 144.81173 73.796497 
L 144.44662 75.324404 
L 144.08151 76.842136 
L 143.7164 78.342711 
L 143.35129 79.816927 
L 142.98618 81.25246 
L 142.62107 82.632647 
L 142.25596 83.934979 
L 141.89085 85.129644 
L 141.52574 86.179157 
L 141.16063 87.041145 
L 140.79552 87.676519 
L 140.43041 88.061975 
L 140.0653 88.199463 
L 139.70019 88.114676 
L 139.33508 87.84606 
L 138.96997 87.433155 
L 138.60486 86.909977 
L 138.23975 86.303225 
L 137.87464 85.632973 
L 137.50953 84.914096 
L 137.14442 84.157629 
L 136.77931 83.371853 
L 136.4142 82.563074 
L 136.04909 81.736189 
L 135.68398 80.89507 
L 135.31887 80.042839 
L 134.95376 79.182063 
L 134.58865 78.314889 
L 134.22354 77.443145 
L 133.85843 76.568408 
L 133.49332 75.692063 
L 133.12821 74.815338 
L 132.7631 73.939332 
L 132.39799 73.065046 
L 132.03288 72.19339 
L 131.66777 71.325202 
L 131.30266 70.461261 
L 130.93755 69.602288 
L 130.57244 68.748957 
L 130.20733 67.901902 
L 129.84222 67.061717 
L 129.47711 66.228961 
L 129.112 65.404161 
L 128.74689 64.587816 
L 128.38178 63.780394 
L 128.01667 62.98234 
L 127.65156 62.194072 
L 127.28645 61.415983 
L 126.92134 60.648446 
L 126.55623 59.891809 
L 126.19112 59.1464 
L 125.82601 58.412526 
L 125.4609 57.690472 
L 125.09579 56.980505 
L 124.73068 56.282873 
L 124.36557 55.597802 
L 124.00046 54.925502 
L 123.63535 54.266164 
L 123.27024 53.619961 
L 122.90513 52.987048 
L 122.54002 52.367564 
L 122.17491 51.761629 
L 121.8098 51.169348 
L 121.44469 50.590811 
L 121.07958 50.026088 
L 120.71447 49.475238 
L 120.34936 48.938301 
L 119.98425 48.415305 
L 119.61914 47.906261 
L 119.25403 47.411168 
L 118.88892 46.93001 
L 118.52381 46.462757 
L 118.1587 46.009367 
L 117.79359 45.569785 
L 117.42848 45.143943 
L 117.06337 44.731762 
L 116.69826 44.33315 
L 116.33315 43.948006 
L 115.96804 43.576217 
L 115.60293 43.217659 
L 115.23782 42.8722 
L 114.87271 42.539696 
L 114.5076 42.219996 
L 114.14249 41.912938 
L 113.77738 41.618356 
L 113.41227 41.336071 
L 113.04716 41.0659 
L 112.68205 40.807651 
L 112.31694 40.561128 
L 111.95183 40.326127 
L 111.58672 40.102437 
L 111.22161 39.889845 
L 110.8565 39.68813 
L 110.49139 39.497069 
L 110.12628 39.316433 
L 109.76117 39.14599 
L 109.39606 38.985505 
L 109.03095 38.83474 
L 108.66584 38.693455 
L 108.30073 38.561406 
L 107.93562 38.438349 
L 107.57051 38.324039 
L 107.2054 38.218228 
L 106.84029 38.120668 
L 106.47518 38.031113 
L 106.11007 37.949313 
L 105.74496 37.875022 
L 105.37985 37.807992 
L 105.01474 37.747977 
L 104.64963 37.694733 
L 104.28452 37.648016 
L 103.91941 37.607584 
L 103.5543 37.573199 
L 103.18919 37.544622 
L 102.82408 37.52162 
L 102.45897 37.50396 
L 102.09386 37.491413 
L 101.72875 37.483754 
L 101.36364 37.480761 
L 100.99853 37.482213 
L 100.63342 37.487898 
L 100.26831 37.497602 
L 99.9032 37.51112 
L 99.53809 37.528247 
L 99.17298 37.548786 
L 98.80787 37.572542 
L 98.44276 37.599326 
L 98.07765 37.628952 
L 97.71254 37.661239 
L 97.34743 37.696013 
L 96.98232 37.733102 
L 96.61721 37.772339 
L 96.2521 37.813565 
L 95.88699 37.856623 
L 95.52188 37.901361 
L 95.15677 37.947634 
L 94.79166 37.995299 
L 94.42655 38.044221 
L 94.06144 38.094269 
L 93.69633 38.145314 
L 93.33122 38.197237 
L 92.96611 38.249921 
L 92.601 38.303252 
L 92.23589 38.357125 
L 91.87078 38.411437 
L 91.50567 38.466089 
L 91.14056 38.520989 
L 90.77545 38.576048 
L 90.41034 38.631181 
L 90.04523 38.686308 
L 89.68012 38.741354 
L 89.31501 38.796247 
L 88.9499 38.85092 
L 88.58479 38.905308 
L 88.21968 38.959353 
L 87.85457 39.012998 
L 87.48946 39.06619 
L 87.12435 39.118882 
L 86.75924 39.171028 
L 86.39413 39.222586 
L 86.02902 39.273516 
L 85.66391 39.323785 
L 85.2988 39.373359 
L 84.93369 39.422208 
L 84.56858 39.470306 
L 84.20347 39.517629 
L 83.83836 39.564155 
L 83.47325 39.609864 
L 83.10814 39.654741 
L 82.74303 39.69877 
L 82.37792 39.74194 
L 82.01281 39.78424 
L 81.6477 39.825662 
L 81.28259 39.8662 
L 80.91748 39.905848 
L 80.55237 39.944605 
L 80.18726 39.982468 
L 79.82215 40.019438 
L 79.45704 40.055516 
L 79.09193 40.090705 
L 78.72682 40.125008 
L 78.36171 40.158432 
L 77.9966 40.190983 
L 77.63149 40.222667 
L 77.26638 40.253493 
L 76.90127 40.28347 
L 76.53616 40.312608 
L 76.17105 40.340918 
L 75.80594 40.368409 
L 75.44083 40.395095 
L 75.07572 40.420988 
L 74.71061 40.4461 
L 74.3455 40.470445 
L 73.98039 40.494037 
L 73.61528 40.516889 
L 73.25017 40.539015 
L 72.88506 40.560431 
L 72.51995 40.58115 
L 72.15484 40.601188 
L 71.78973 40.62056 
L 71.42462 40.639281 
L 71.05951 40.657366 
L 70.6944 40.67483 
L 70.32929 40.691688 
L 69.96418 40.707956 
L 69.59907 40.723649 
L 69.23396 40.738781 
L 68.86885 40.753368 
L 68.50374 40.767425 
L 68.13863 40.780965 
L 67.77352 40.794005 
L 67.40841 40.806557 
L 67.0433 40.818637 
L 66.67819 40.830258 
L 66.31308 40.841435 
L 65.94797 40.85218 
L 65.58286 40.862507 
L 65.21775 40.87243 
L 64.85264 40.88196 
L 64.48753 40.891112 
L 64.12242 40.899897 
L 63.75731 40.908327 
L 63.3922 40.916414 
L 63.02709 40.92417 
L 62.66198 40.931607 
L 62.29687 40.938734 
L 61.93176 40.945564 
L 61.56665 40.952106 
L 61.20154 40.958372 
L 60.83643 40.96437 
L 60.47132 40.970111 
L 60.10621 40.975604 
L 59.7411 40.980859 
L 59.37599 40.985884 
L 59.01088 40.990688 
L 58.64577 40.99528 
L 58.28066 40.999667 
L 57.91555 41.003858 
L 57.55044 41.00786 
L 57.18533 41.011681 
L 56.82022 41.015329 
L 56.45511 41.018809 
L 56.09 41.022129 
z
" clip-path="url(#p3cbd831659)" style="fill: #7570b3; fill-opacity: 0.2"/>
   </g>
   <g id="patch_3">
    <path d="M 56.09 246.04 
L 56.09 10.8 
" style="fill: none; stroke: #000000; stroke-width: 0.8; stroke-linejoin: miter; stroke-linecap: square"/>
   </g>
   <g id="patch_4">
    <path d="M 421.2 246.04 
L 421.2 10.8 
" style="fill: none; stroke: #000000; stroke-width: 0.8; stroke-linejoin: miter; stroke-linecap: square"/>
   </g>
   <g id="patch_5">
    <path d="M 56.09 246.04 
L 421.2 246.04 
" style="fill: none; stroke: #000000; stroke-width: 0.8; stroke-linejoin: miter; stroke-linecap: square"/>
   </g>
   <g id="patch_6">
    <path d="M 56.09 10.8 
L 421.2 10.8 
" style="fill: none; stroke: #000000; stroke-width: 0.8; stroke-linejoin: miter; stroke-linecap: square"/>
   </g>
   <g id="line2d_29">
    <path d="M 56.09 214.965566 
L 58.28066 214.842935 
L 60.47132 214.475437 
L 62.66198 213.864245 
L 64.85264 213.011314 
L 67.0433 211.919371 
L 69.23396 210.591905 
L 71.42462 209.033161 
L 73.98039 206.929005 
L 76.53616 204.526022 
L 79.09193 201.834665 
L 82.01281 198.420797 
L 84.93369 194.665012 
L 88.21968 190.057699 
L 91.50567 185.077838 
L 95.15677 179.151356 
L 99.17298 172.215008 
L 103.91941 163.553313 
L 109.76117 152.386145 
L 119.98425 132.228179 
L 128.01667 116.612393 
L 133.49332 106.457287 
L 137.87464 98.780566 
L 141.89085 92.184286 
L 145.54195 86.61514 
L 148.82794 81.993422 
L 152.11393 77.776204 
L 155.03481 74.391733 
L 157.95569 71.370101 
L 160.51146 69.037367 
L 163.06723 67.005759 
L 165.623 65.284119 
L 167.81366 64.06085 
L 170.00432 63.074748 
L 172.19498 62.328966 
L 174.38564 61.825888 
L 176.5763 61.567121 
L 178.76696 61.553494 
L 180.95762 61.785049 
L 183.14828 62.261047 
L 185.33894 62.979966 
L 187.5296 63.939507 
L 189.72026 65.136603 
L 191.91092 66.567427 
L 194.46669 68.525985 
L 197.02246 70.787895 
L 199.57823 73.343315 
L 202.49911 76.608877 
L 205.41999 80.224682 
L 208.70598 84.685456 
L 211.99197 89.531374 
L 215.64307 95.324971 
L 219.65928 102.13588 
L 224.0406 110.005581 
L 229.51725 120.337919 
L 237.18456 135.355894 
L 248.86808 158.258693 
L 254.34473 168.494522 
L 258.72605 176.258088 
L 262.74226 182.950351 
L 266.39336 188.61946 
L 269.67935 193.340737 
L 272.96534 197.665857 
L 275.88622 201.152624 
L 278.8071 204.281951 
L 281.36287 206.71287 
L 283.91864 208.8459 
L 286.47441 210.671763 
L 288.66507 211.986249 
L 290.85573 213.064998 
L 293.04639 213.904564 
L 295.23705 214.502261 
L 297.42771 214.856179 
L 299.61837 214.965187 
L 301.80903 214.828936 
L 303.99969 214.447861 
L 306.19035 213.823181 
L 308.38101 212.956892 
L 310.57167 211.851765 
L 312.76233 210.511333 
L 315.3181 208.655853 
L 317.87387 206.494031 
L 320.42964 204.035274 
L 322.98541 201.29028 
L 325.90629 197.818024 
L 328.82717 194.007277 
L 332.11316 189.342614 
L 335.76426 183.730294 
L 339.41536 177.714265 
L 343.79668 170.037543 
L 348.54311 161.265922 
L 354.74998 149.295656 
L 374.10081 111.580928 
L 378.84724 102.989299 
L 383.22856 95.524948 
L 386.87966 89.717803 
L 390.53076 84.341409 
L 393.81675 79.910476 
L 396.73763 76.3231 
L 399.65851 73.087591 
L 402.21428 70.559665 
L 404.77005 68.326242 
L 407.32582 66.39704 
L 409.51648 64.991974 
L 411.70714 63.821097 
L 413.8978 62.888155 
L 416.08846 62.196128 
L 418.27912 61.747229 
L 420.46978 61.542894 
L 421.2 61.529265 
L 421.2 61.529265 
" clip-path="url(#p3cbd831659)" style="fill: none; stroke: #1b9e77; stroke-opacity: 0.8; stroke-width: 1.5; stroke-linecap: square"/>
   </g>
   <g id="PathCollection_1">
    <defs>
     <path id="C0_0_e5c5fed819" d="M 0 3.872983 
C 1.027127 3.872983 2.012324 3.464901 2.738613 2.738613 
C 3.464901 2.012324 3.872983 1.027127 3.872983 -0 
C 3.872983 -1.027127 3.464901 -2.012324 2.738613 -2.738613 
C 2.012324 -3.464901 1.027127 -3.872983 0 -3.872983 
C -1.027127 -3.872983 -2.012324 -3.464901 -2.738613 -2.738613 
C -3.464901 -2.012324 -3.872983 -1.027127 -3.872983 0 
C -3.872983 1.027127 -3.464901 2.012324 -2.738613 2.738613 
C -2.012324 3.464901 -1.027127 3.872983 0 3.872983 
z
"/>
    </defs>
    <g clip-path="url(#p3cbd831659)">
     <use xlink:href="#C0_0_e5c5fed819" x="351.219819" y="153.437466" style="fill: #e6ab02; fill-opacity: 0.8"/>
    </g>
    <g clip-path="url(#p3cbd831659)">
     <use xlink:href="#C0_0_e5c5fed819" x="331.100972" y="203.267266" style="fill: #e6ab02; fill-opacity: 0.8"/>
    </g>
    <g clip-path="url(#p3cbd831659)">
     <use xlink:href="#C0_0_e5c5fed819" x="285.274586" y="210.615264" style="fill: #e6ab02; fill-opacity: 0.8"/>
    </g>
    <g clip-path="url(#p3cbd831659)">
     <use xlink:href="#C0_0_e5c5fed819" x="140.68688" y="94.609408" style="fill: #e6ab02; fill-opacity: 0.8"/>
    </g>
    <g clip-path="url(#p3cbd831659)">
     <use xlink:href="#C0_0_e5c5fed819" x="249.387462" y="162.08525" style="fill: #e6ab02; fill-opacity: 0.8"/>
    </g>
    <g clip-path="url(#p3cbd831659)">
     <use xlink:href="#C0_0_e5c5fed819" x="264.673874" y="184.753598" style="fill: #e6ab02; fill-opacity: 0.8"/>
    </g>
    <g clip-path="url(#p3cbd831659)">
     <use xlink:href="#C0_0_e5c5fed819" x="303.301393" y="209.163568" style="fill: #e6ab02; fill-opacity: 0.8"/>
    </g>
    <g clip-path="url(#p3cbd831659)">
     <use xlink:href="#C0_0_e5c5fed819" x="182.039771" y="52.994697" style="fill: #e6ab02; fill-opacity: 0.8"/>
    </g>
    <g clip-path="url(#p3cbd831659)">
     <use xlink:href="#C0_0_e5c5fed819" x="291.511543" y="221.956922" style="fill: #e6ab02; fill-opacity: 0.8"/>
    </g>
    <g clip-path="url(#p3cbd831659)">
     <use xlink:href="#C0_0_e5c5fed819" x="230.276159" y="123.320629" style="fill: #e6ab02; fill-opacity: 0.8"/>
    </g>
   </g>
   <g id="line2d_30">
    <path d="M 56.09 138.184701 
L 67.0433 137.976072 
L 73.98039 137.628832 
L 79.09193 137.168677 
L 83.47325 136.568341 
L 87.48946 135.796827 
L 91.14056 134.868778 
L 94.42655 133.817583 
L 97.71254 132.536784 
L 100.99853 131.006909 
L 104.28452 129.214905 
L 107.57051 127.155539 
L 110.8565 124.832086 
L 114.5076 121.954979 
L 118.1587 118.791795 
L 122.17491 115.020152 
L 126.55623 110.606506 
L 131.66777 105.123003 
L 136.77931 99.319513 
L 142.25596 92.759872 
L 148.09772 85.392604 
L 163.79745 65.286731 
L 166.71833 62.042977 
L 169.2741 59.509783 
L 171.46476 57.616683 
L 173.65542 56.02051 
L 175.48097 54.941533 
L 177.30652 54.108507 
L 179.13207 53.53452 
L 180.95762 53.22904 
L 182.78317 53.19772 
L 184.60872 53.442377 
L 186.43427 53.961133 
L 188.25982 54.748713 
L 190.08537 55.796893 
L 191.91092 57.095066 
L 194.10158 58.9654 
L 196.29224 61.154714 
L 198.4829 63.639392 
L 201.03867 66.88161 
L 203.59444 70.463865 
L 206.51532 74.941958 
L 209.4362 79.803504 
L 212.72219 85.707507 
L 216.00818 92.050348 
L 219.65928 99.576137 
L 224.0406 109.169774 
L 230.61258 124.21966 
L 236.45434 137.418663 
L 240.10544 145.156692 
L 243.39143 151.610187 
L 246.31231 156.891583 
L 249.23319 161.756983 
L 252.51918 166.813304 
L 257.26561 173.64584 
L 263.83759 183.126809 
L 267.8538 189.33134 
L 279.17221 207.208745 
L 281.36287 210.094152 
L 283.18842 212.179116 
L 285.01397 213.919647 
L 286.47441 215.037057 
L 287.93485 215.894365 
L 289.39529 216.483868 
L 290.85573 216.804792 
L 292.31617 216.863559 
L 293.77661 216.673772 
L 295.23705 216.255903 
L 297.0626 215.454076 
L 298.88815 214.40174 
L 301.44392 212.648182 
L 307.65079 208.252083 
L 309.84145 207.029487 
L 311.667 206.236162 
L 313.49255 205.664871 
L 315.3181 205.309273 
L 317.50876 205.126577 
L 320.42964 205.14696 
L 324.08074 205.156791 
L 325.90629 204.944052 
L 327.36673 204.580577 
L 328.82717 203.992864 
L 330.28761 203.136087 
L 331.74805 201.970469 
L 333.20849 200.462722 
L 334.66893 198.587261 
L 336.12937 196.327158 
L 337.58981 193.674807 
L 339.41536 189.811874 
L 341.24091 185.365418 
L 343.43157 179.328781 
L 345.98734 171.478461 
L 349.27333 160.507487 
L 356.57553 135.732545 
L 359.1313 127.955386 
L 361.32196 121.988281 
L 363.14751 117.601119 
L 364.97306 113.80009 
L 366.4335 111.20334 
L 367.89394 109.01072 
L 369.35438 107.223496 
L 370.81482 105.836391 
L 371.91015 105.052063 
L 373.00548 104.479799 
L 374.10081 104.111306 
L 375.19614 103.936946 
L 376.29147 103.945927 
L 377.75191 104.222662 
L 379.21235 104.77443 
L 380.67279 105.569667 
L 382.49834 106.856619 
L 384.689 108.746666 
L 387.24477 111.29389 
L 391.26098 115.685514 
L 396.73763 121.659233 
L 400.02362 124.909413 
L 402.9445 127.477665 
L 405.50027 129.448533 
L 408.05604 131.156006 
L 410.61181 132.607843 
L 413.16758 133.820748 
L 416.08846 134.94337 
L 419.00934 135.821707 
L 421.2 136.34398 
L 421.2 136.34398 
" clip-path="url(#p3cbd831659)" style="fill: none; stroke: #7570b3; stroke-opacity: 0.8; stroke-width: 1.5; stroke-linecap: square"/>
   </g>
   <g id="legend_1">
    <g id="patch_7">
     <path d="M 317.757812 77.5125 
L 414.2 77.5125 
Q 416.2 77.5125 416.2 75.5125 
L 416.2 17.8 
Q 416.2 15.8 414.2 15.8 
L 317.757812 15.8 
Q 315.757812 15.8 315.757812 17.8 
L 315.757812 75.5125 
Q 315.757812 77.5125 317.757812 77.5125 
z
" style="fill: #ffffff; opacity: 0.8; stroke: #cccccc; stroke-linejoin: miter"/>
    </g>
    <g id="line2d_31">
     <path d="M 319.757812 23.898438 
L 329.757812 23.898438 
L 339.757812 23.898438 
" style="fill: none; stroke: #1b9e77; stroke-opacity: 0.8; stroke-width: 1.5; stroke-linecap: square"/>
    </g>
    <g id="text_17">
     <!-- ground truth -->
     <g transform="translate(347.757812 27.398438) scale(0.1 -0.1)">
      <defs>
       <path id="DejaVuSans-67" d="M 2906 1791 
Q 2906 2416 2648 2759 
Q 2391 3103 1925 3103 
Q 1463 3103 1205 2759 
Q 947 2416 947 1791 
Q 947 1169 1205 825 
Q 1463 481 1925 481 
Q 2391 481 2648 825 
Q 2906 1169 2906 1791 
z
M 3481 434 
Q 3481 -459 3084 -895 
Q 2688 -1331 1869 -1331 
Q 1566 -1331 1297 -1286 
Q 1028 -1241 775 -1147 
L 775 -588 
Q 1028 -725 1275 -790 
Q 1522 -856 1778 -856 
Q 2344 -856 2625 -561 
Q 2906 -266 2906 331 
L 2906 616 
Q 2728 306 2450 153 
Q 2172 0 1784 0 
Q 1141 0 747 490 
Q 353 981 353 1791 
Q 353 2603 747 3093 
Q 1141 3584 1784 3584 
Q 2172 3584 2450 3431 
Q 2728 3278 2906 2969 
L 2906 3500 
L 3481 3500 
L 3481 434 
z
" transform="scale(0.015625)"/>
       <path id="DejaVuSans-72" d="M 2631 2963 
Q 2534 3019 2420 3045 
Q 2306 3072 2169 3072 
Q 1681 3072 1420 2755 
Q 1159 2438 1159 1844 
L 1159 0 
L 581 0 
L 581 3500 
L 1159 3500 
L 1159 2956 
Q 1341 3275 1631 3429 
Q 1922 3584 2338 3584 
Q 2397 3584 2469 3576 
Q 2541 3569 2628 3553 
L 2631 2963 
z
" transform="scale(0.015625)"/>
       <path id="DejaVuSans-6f" d="M 1959 3097 
Q 1497 3097 1228 2736 
Q 959 2375 959 1747 
Q 959 1119 1226 758 
Q 1494 397 1959 397 
Q 2419 397 2687 759 
Q 2956 1122 2956 1747 
Q 2956 2369 2687 2733 
Q 2419 3097 1959 3097 
z
M 1959 3584 
Q 2709 3584 3137 3096 
Q 3566 2609 3566 1747 
Q 3566 888 3137 398 
Q 2709 -91 1959 -91 
Q 1206 -91 779 398 
Q 353 888 353 1747 
Q 353 2609 779 3096 
Q 1206 3584 1959 3584 
z
" transform="scale(0.015625)"/>
       <path id="DejaVuSans-75" d="M 544 1381 
L 544 3500 
L 1119 3500 
L 1119 1403 
Q 1119 906 1312 657 
Q 1506 409 1894 409 
Q 2359 409 2629 706 
Q 2900 1003 2900 1516 
L 2900 3500 
L 3475 3500 
L 3475 0 
L 2900 0 
L 2900 538 
Q 2691 219 2414 64 
Q 2138 -91 1772 -91 
Q 1169 -91 856 284 
Q 544 659 544 1381 
z
M 1991 3584 
L 1991 3584 
z
" transform="scale(0.015625)"/>
       <path id="DejaVuSans-6e" d="M 3513 2113 
L 3513 0 
L 2938 0 
L 2938 2094 
Q 2938 2591 2744 2837 
Q 2550 3084 2163 3084 
Q 1697 3084 1428 2787 
Q 1159 2491 1159 1978 
L 1159 0 
L 581 0 
L 581 3500 
L 1159 3500 
L 1159 2956 
Q 1366 3272 1645 3428 
Q 1925 3584 2291 3584 
Q 2894 3584 3203 3211 
Q 3513 2838 3513 2113 
z
" transform="scale(0.015625)"/>
       <path id="DejaVuSans-64" d="M 2906 2969 
L 2906 4863 
L 3481 4863 
L 3481 0 
L 2906 0 
L 2906 525 
Q 2725 213 2448 61 
Q 2172 -91 1784 -91 
Q 1150 -91 751 415 
Q 353 922 353 1747 
Q 353 2572 751 3078 
Q 1150 3584 1784 3584 
Q 2172 3584 2448 3432 
Q 2725 3281 2906 2969 
z
M 947 1747 
Q 947 1113 1208 752 
Q 1469 391 1925 391 
Q 2381 391 2643 752 
Q 2906 1113 2906 1747 
Q 2906 2381 2643 2742 
Q 2381 3103 1925 3103 
Q 1469 3103 1208 2742 
Q 947 2381 947 1747 
z
" transform="scale(0.015625)"/>
       <path id="DejaVuSans-20" transform="scale(0.015625)"/>
       <path id="DejaVuSans-74" d="M 1172 4494 
L 1172 3500 
L 2356 3500 
L 2356 3053 
L 1172 3053 
L 1172 1153 
Q 1172 725 1289 603 
Q 1406 481 1766 481 
L 2356 481 
L 2356 0 
L 1766 0 
Q 1100 0 847 248 
Q 594 497 594 1153 
L 594 3053 
L 172 3053 
L 172 3500 
L 594 3500 
L 594 4494 
L 1172 4494 
z
" transform="scale(0.015625)"/>
       <path id="DejaVuSans-68" d="M 3513 2113 
L 3513 0 
L 2938 0 
L 2938 2094 
Q 2938 2591 2744 2837 
Q 2550 3084 2163 3084 
Q 1697 3084 1428 2787 
Q 1159 2491 1159 1978 
L 1159 0 
L 581 0 
L 581 4863 
L 1159 4863 
L 1159 2956 
Q 1366 3272 1645 3428 
Q 1925 3584 2291 3584 
Q 2894 3584 3203 3211 
Q 3513 2838 3513 2113 
z
" transform="scale(0.015625)"/>
      </defs>
      <use xlink:href="#DejaVuSans-67"/>
      <use xlink:href="#DejaVuSans-72" x="63.476562"/>
      <use xlink:href="#DejaVuSans-6f" x="102.339844"/>
      <use xlink:href="#DejaVuSans-75" x="163.521484"/>
      <use xlink:href="#DejaVuSans-6e" x="226.900391"/>
      <use xlink:href="#DejaVuSans-64" x="290.279297"/>
      <use xlink:href="#DejaVuSans-20" x="353.755859"/>
      <use xlink:href="#DejaVuSans-74" x="385.542969"/>
      <use xlink:href="#DejaVuSans-72" x="424.751953"/>
      <use xlink:href="#DejaVuSans-75" x="465.865234"/>
      <use xlink:href="#DejaVuSans-74" x="529.244141"/>
      <use xlink:href="#DejaVuSans-68" x="568.453125"/>
     </g>
    </g>
    <g id="PathCollection_2">
     <path d="M 329.757812 43.324546 
C 330.78494 43.324546 331.770137 42.916464 332.496425 42.190175 
C 333.222714 41.463887 333.630796 40.47869 333.630796 39.451562 
C 333.630796 38.424435 333.222714 37.439238 332.496425 36.71295 
C 331.770137 35.986661 330.78494 35.578579 329.757812 35.578579 
C 328.730685 35.578579 327.745488 35.986661 327.0192 36.71295 
C 326.292911 37.439238 325.884829 38.424435 325.884829 39.451562 
C 325.884829 40.47869 326.292911 41.463887 327.0192 42.190175 
C 327.745488 42.916464 328.730685 43.324546 329.757812 43.324546 
z
" style="fill: #e6ab02; fill-opacity: 0.8"/>
    </g>
    <g id="text_18">
     <!-- training data -->
     <g transform="translate(347.757812 42.076562) scale(0.1 -0.1)">
      <defs>
       <path id="DejaVuSans-61" d="M 2194 1759 
Q 1497 1759 1228 1600 
Q 959 1441 959 1056 
Q 959 750 1161 570 
Q 1363 391 1709 391 
Q 2188 391 2477 730 
Q 2766 1069 2766 1631 
L 2766 1759 
L 2194 1759 
z
M 3341 1997 
L 3341 0 
L 2766 0 
L 2766 531 
Q 2569 213 2275 61 
Q 1981 -91 1556 -91 
Q 1019 -91 701 211 
Q 384 513 384 1019 
Q 384 1609 779 1909 
Q 1175 2209 1959 2209 
L 2766 2209 
L 2766 2266 
Q 2766 2663 2505 2880 
Q 2244 3097 1772 3097 
Q 1472 3097 1187 3025 
Q 903 2953 641 2809 
L 641 3341 
Q 956 3463 1253 3523 
Q 1550 3584 1831 3584 
Q 2591 3584 2966 3190 
Q 3341 2797 3341 1997 
z
" transform="scale(0.015625)"/>
       <path id="DejaVuSans-69" d="M 603 3500 
L 1178 3500 
L 1178 0 
L 603 0 
L 603 3500 
z
M 603 4863 
L 1178 4863 
L 1178 4134 
L 603 4134 
L 603 4863 
z
" transform="scale(0.015625)"/>
      </defs>
      <use xlink:href="#DejaVuSans-74"/>
      <use xlink:href="#DejaVuSans-72" x="39.208984"/>
      <use xlink:href="#DejaVuSans-61" x="80.322266"/>
      <use xlink:href="#DejaVuSans-69" x="141.601562"/>
      <use xlink:href="#DejaVuSans-6e" x="169.384766"/>
      <use xlink:href="#DejaVuSans-69" x="232.763672"/>
      <use xlink:href="#DejaVuSans-6e" x="260.546875"/>
      <use xlink:href="#DejaVuSans-67" x="323.925781"/>
      <use xlink:href="#DejaVuSans-20" x="387.402344"/>
      <use xlink:href="#DejaVuSans-64" x="419.189453"/>
      <use xlink:href="#DejaVuSans-61" x="482.666016"/>
      <use xlink:href="#DejaVuSans-74" x="543.945312"/>
      <use xlink:href="#DejaVuSans-61" x="583.154297"/>
     </g>
    </g>
    <g id="line2d_32">
     <path d="M 319.757812 53.254687 
L 329.757812 53.254687 
L 339.757812 53.254687 
" style="fill: none; stroke: #7570b3; stroke-opacity: 0.8; stroke-width: 1.5; stroke-linecap: square"/>
    </g>
    <g id="text_19">
     <!-- predictions -->
     <g transform="translate(347.757812 56.754687) scale(0.1 -0.1)">
      <defs>
       <path id="DejaVuSans-70" d="M 1159 525 
L 1159 -1331 
L 581 -1331 
L 581 3500 
L 1159 3500 
L 1159 2969 
Q 1341 3281 1617 3432 
Q 1894 3584 2278 3584 
Q 2916 3584 3314 3078 
Q 3713 2572 3713 1747 
Q 3713 922 3314 415 
Q 2916 -91 2278 -91 
Q 1894 -91 1617 61 
Q 1341 213 1159 525 
z
M 3116 1747 
Q 3116 2381 2855 2742 
Q 2594 3103 2138 3103 
Q 1681 3103 1420 2742 
Q 1159 2381 1159 1747 
Q 1159 1113 1420 752 
Q 1681 391 2138 391 
Q 2594 391 2855 752 
Q 3116 1113 3116 1747 
z
" transform="scale(0.015625)"/>
       <path id="DejaVuSans-65" d="M 3597 1894 
L 3597 1613 
L 953 1613 
Q 991 1019 1311 708 
Q 1631 397 2203 397 
Q 2534 397 2845 478 
Q 3156 559 3463 722 
L 3463 178 
Q 3153 47 2828 -22 
Q 2503 -91 2169 -91 
Q 1331 -91 842 396 
Q 353 884 353 1716 
Q 353 2575 817 3079 
Q 1281 3584 2069 3584 
Q 2775 3584 3186 3129 
Q 3597 2675 3597 1894 
z
M 3022 2063 
Q 3016 2534 2758 2815 
Q 2500 3097 2075 3097 
Q 1594 3097 1305 2825 
Q 1016 2553 972 2059 
L 3022 2063 
z
" transform="scale(0.015625)"/>
       <path id="DejaVuSans-63" d="M 3122 3366 
L 3122 2828 
Q 2878 2963 2633 3030 
Q 2388 3097 2138 3097 
Q 1578 3097 1268 2742 
Q 959 2388 959 1747 
Q 959 1106 1268 751 
Q 1578 397 2138 397 
Q 2388 397 2633 464 
Q 2878 531 3122 666 
L 3122 134 
Q 2881 22 2623 -34 
Q 2366 -91 2075 -91 
Q 1284 -91 818 406 
Q 353 903 353 1747 
Q 353 2603 823 3093 
Q 1294 3584 2113 3584 
Q 2378 3584 2631 3529 
Q 2884 3475 3122 3366 
z
" transform="scale(0.015625)"/>
       <path id="DejaVuSans-73" d="M 2834 3397 
L 2834 2853 
Q 2591 2978 2328 3040 
Q 2066 3103 1784 3103 
Q 1356 3103 1142 2972 
Q 928 2841 928 2578 
Q 928 2378 1081 2264 
Q 1234 2150 1697 2047 
L 1894 2003 
Q 2506 1872 2764 1633 
Q 3022 1394 3022 966 
Q 3022 478 2636 193 
Q 2250 -91 1575 -91 
Q 1294 -91 989 -36 
Q 684 19 347 128 
L 347 722 
Q 666 556 975 473 
Q 1284 391 1588 391 
Q 1994 391 2212 530 
Q 2431 669 2431 922 
Q 2431 1156 2273 1281 
Q 2116 1406 1581 1522 
L 1381 1569 
Q 847 1681 609 1914 
Q 372 2147 372 2553 
Q 372 3047 722 3315 
Q 1072 3584 1716 3584 
Q 2034 3584 2315 3537 
Q 2597 3491 2834 3397 
z
" transform="scale(0.015625)"/>
      </defs>
      <use xlink:href="#DejaVuSans-70"/>
      <use xlink:href="#DejaVuSans-72" x="63.476562"/>
      <use xlink:href="#DejaVuSans-65" x="102.339844"/>
      <use xlink:href="#DejaVuSans-64" x="163.863281"/>
      <use xlink:href="#DejaVuSans-69" x="227.339844"/>
      <use xlink:href="#DejaVuSans-63" x="255.123047"/>
      <use xlink:href="#DejaVuSans-74" x="310.103516"/>
      <use xlink:href="#DejaVuSans-69" x="349.3125"/>
      <use xlink:href="#DejaVuSans-6f" x="377.095703"/>
      <use xlink:href="#DejaVuSans-6e" x="438.277344"/>
      <use xlink:href="#DejaVuSans-73" x="501.65625"/>
     </g>
    </g>
    <g id="patch_8">
     <path d="M 319.757812 71.432813 
L 339.757812 71.432813 
L 339.757812 64.432813 
L 319.757812 64.432813 
z
" style="fill: #7570b3; fill-opacity: 0.2"/>
    </g>
    <g id="text_20">
     <!-- uncertainty -->
     <g transform="translate(347.757812 71.432813) scale(0.1 -0.1)">
      <use xlink:href="#DejaVuSans-75"/>
      <use xlink:href="#DejaVuSans-6e" x="63.378906"/>
      <use xlink:href="#DejaVuSans-63" x="126.757812"/>
      <use xlink:href="#DejaVuSans-65" x="181.738281"/>
      <use xlink:href="#DejaVuSans-72" x="243.261719"/>
      <use xlink:href="#DejaVuSans-74" x="284.375"/>
      <use xlink:href="#DejaVuSans-61" x="323.583984"/>
      <use xlink:href="#DejaVuSans-69" x="384.863281"/>
      <use xlink:href="#DejaVuSans-6e" x="412.646484"/>
      <use xlink:href="#DejaVuSans-74" x="476.025391"/>
      <use xlink:href="#DejaVuSans-79" x="515.234375"/>
     </g>
    </g>
   </g>
  </g>
 </g>
 <defs>
  <clipPath id="p3cbd831659">
   <rect x="56.09" y="10.8" width="365.11" height="235.24"/>
  </clipPath>
 </defs>
</svg>
